<svg width="1280" height="594" viewBox="0 0 1280 594" fill="none" xmlns="http://www.w3.org/2000/svg">
<path d="M363.196 27.0188C361.716 27.0188 360.336 26.7488 359.056 26.2087C357.776 25.6487 356.656 24.8787 355.696 23.8987C354.736 22.8987 353.986 21.7487 353.446 20.4487C352.926 19.1487 352.666 17.7587 352.666 16.2787C352.666 14.7787 352.926 13.3887 353.446 12.1087C353.986 10.8087 354.726 9.66875 355.666 8.68875C356.626 7.70875 357.736 6.94875 358.996 6.40875C360.276 5.86875 361.656 5.59875 363.136 5.59875C364.616 5.59875 365.986 5.86875 367.246 6.40875C368.526 6.94875 369.646 7.70875 370.606 8.68875C371.566 9.66875 372.316 10.8087 372.856 12.1087C373.396 13.4087 373.666 14.8087 373.666 16.3087C373.666 17.7887 373.396 19.1787 372.856 20.4787C372.316 21.7787 371.566 22.9187 370.606 23.8987C369.666 24.8787 368.556 25.6487 367.276 26.2087C366.016 26.7488 364.656 27.0188 363.196 27.0188ZM363.136 24.3187C364.636 24.3187 365.946 23.9787 367.066 23.2987C368.206 22.5987 369.106 21.6487 369.766 20.4487C370.426 19.2287 370.756 17.8387 370.756 16.2787C370.756 15.1187 370.566 14.0587 370.186 13.0987C369.806 12.1187 369.276 11.2687 368.596 10.5487C367.916 9.82875 367.116 9.27875 366.196 8.89875C365.276 8.49875 364.256 8.29875 363.136 8.29875C361.656 8.29875 360.346 8.63875 359.206 9.31875C358.086 9.99875 357.196 10.9387 356.536 12.1387C355.896 13.3387 355.576 14.7187 355.576 16.2787C355.576 17.4387 355.756 18.5187 356.116 19.5187C356.496 20.4987 357.016 21.3487 357.676 22.0687C358.356 22.7687 359.156 23.3187 360.076 23.7187C361.016 24.1187 362.036 24.3187 363.136 24.3187ZM377.534 26.7188V5.89875H379.514L380.354 9.16875V26.7188H377.534ZM391.934 26.7188L379.154 9.64875L379.514 5.89875L392.324 22.9387L391.934 26.7188ZM391.934 26.7188L391.094 23.6287V5.89875H393.914V26.7188H391.934ZM398.833 26.7188V5.89875H401.653V26.7188H398.833ZM400.753 26.7188V24.1387H412.693V26.7188H400.753ZM400.753 17.2987V14.8387H411.703V17.2987H400.753ZM400.753 8.47875V5.89875H412.543V8.47875H400.753ZM432.219 27.0188C430.719 27.0188 429.329 26.7488 428.049 26.2087C426.769 25.6487 425.649 24.8787 424.689 23.8987C423.749 22.9187 423.019 21.7787 422.499 20.4787C421.979 19.1787 421.719 17.7887 421.719 16.3087C421.719 14.8087 421.979 13.4087 422.499 12.1087C423.019 10.8087 423.749 9.67875 424.689 8.71875C425.649 7.73875 426.759 6.97875 428.019 6.43875C429.299 5.87875 430.689 5.59875 432.189 5.59875C433.829 5.59875 435.269 5.87875 436.509 6.43875C437.749 6.99875 438.849 7.75875 439.809 8.71875L437.859 10.6687C437.199 9.92875 436.389 9.34875 435.429 8.92875C434.489 8.50875 433.409 8.29875 432.189 8.29875C431.089 8.29875 430.079 8.49875 429.159 8.89875C428.239 9.27875 427.439 9.82875 426.759 10.5487C426.079 11.2687 425.549 12.1187 425.169 13.0987C424.809 14.0787 424.629 15.1487 424.629 16.3087C424.629 17.4687 424.809 18.5387 425.169 19.5187C425.549 20.4987 426.079 21.3487 426.759 22.0687C427.439 22.7887 428.239 23.3487 429.159 23.7487C430.079 24.1287 431.089 24.3187 432.189 24.3187C433.489 24.3187 434.619 24.1087 435.579 23.6887C436.539 23.2487 437.349 22.6587 438.009 21.9187L439.959 23.8387C438.999 24.8387 437.869 25.6187 436.569 26.1787C435.289 26.7388 433.839 27.0188 432.219 27.0188ZM441.366 26.7188L449.886 5.89875H451.926L460.416 26.7188H457.356L450.366 9.10875H451.416L444.366 26.7188H441.366ZM445.416 22.0087V19.5487H456.366V22.0087H445.416ZM463.55 26.7188V5.89875H466.37V26.7188H463.55ZM465.47 26.7188V24.1387H476.63V26.7188H465.47Z" fill="black"/>
<path d="M1090.88 27.0188C1089.42 27.0188 1088.05 26.7488 1086.77 26.2087C1085.51 25.6487 1084.4 24.8787 1083.44 23.8987C1082.5 22.9187 1081.76 21.7787 1081.22 20.4787C1080.68 19.1787 1080.41 17.7787 1080.41 16.2787C1080.41 14.7787 1080.68 13.3887 1081.22 12.1087C1081.76 10.8087 1082.51 9.66875 1083.47 8.68875C1084.43 7.70875 1085.55 6.94875 1086.83 6.40875C1088.13 5.86875 1089.54 5.59875 1091.06 5.59875C1092.72 5.59875 1094.25 5.91875 1095.65 6.55875C1097.05 7.19875 1098.22 8.11875 1099.16 9.31875L1097.21 11.2687C1096.55 10.3087 1095.68 9.57875 1094.6 9.07875C1093.52 8.55875 1092.34 8.29875 1091.06 8.29875C1089.54 8.29875 1088.19 8.63875 1087.01 9.31875C1085.85 9.99875 1084.94 10.9387 1084.28 12.1387C1083.64 13.3387 1083.32 14.7187 1083.32 16.2787C1083.32 17.8587 1083.65 19.2487 1084.31 20.4487C1084.97 21.6487 1085.86 22.5887 1086.98 23.2687C1088.1 23.9487 1089.38 24.2887 1090.82 24.2887C1092.28 24.2887 1093.54 24.0087 1094.6 23.4487C1095.68 22.8887 1096.51 22.0687 1097.09 20.9887C1097.67 19.8887 1097.96 18.5487 1097.96 16.9687L1099.67 18.1987H1090.67V15.6187H1100.87V16.0387C1100.87 18.4587 1100.44 20.4887 1099.58 22.1287C1098.74 23.7487 1097.56 24.9687 1096.04 25.7887C1094.54 26.6088 1092.82 27.0188 1090.88 27.0188ZM1112.46 27.0188C1110.92 27.0188 1109.54 26.6788 1108.32 25.9987C1107.12 25.2987 1106.17 24.3487 1105.47 23.1487C1104.77 21.9287 1104.42 20.5487 1104.42 19.0088V5.89875H1107.24V18.9487C1107.24 20.0487 1107.47 20.9987 1107.93 21.7987C1108.39 22.5987 1109.01 23.2187 1109.79 23.6587C1110.59 24.0987 1111.48 24.3187 1112.46 24.3187C1113.48 24.3187 1114.37 24.0987 1115.13 23.6587C1115.91 23.2187 1116.52 22.5987 1116.96 21.7987C1117.42 20.9987 1117.65 20.0587 1117.65 18.9787V5.89875H1120.5V19.0387C1120.5 20.5787 1120.15 21.9487 1119.45 23.1487C1118.75 24.3487 1117.8 25.2987 1116.6 25.9987C1115.4 26.6788 1114.02 27.0188 1112.46 27.0188ZM1125.14 26.7188V5.89875H1127.96V26.7188H1125.14ZM1127.06 26.7188V24.1387H1138.22V26.7188H1127.06ZM1139.4 26.7188L1147.92 5.89875H1149.96L1158.45 26.7188H1155.39L1148.4 9.10875H1149.45L1142.4 26.7188H1139.4ZM1143.45 22.0087V19.5487H1154.4V22.0087H1143.45ZM1169.1 18.6187V16.1587H1174.77C1175.55 16.1587 1176.24 15.9987 1176.84 15.6787C1177.46 15.3587 1177.94 14.9087 1178.28 14.3287C1178.64 13.7487 1178.82 13.0587 1178.82 12.2587C1178.82 11.4587 1178.64 10.7687 1178.28 10.1888C1177.94 9.60875 1177.46 9.15875 1176.84 8.83875C1176.24 8.51875 1175.55 8.35875 1174.77 8.35875H1169.1V5.89875H1174.95C1176.23 5.89875 1177.37 6.15875 1178.37 6.67875C1179.39 7.19875 1180.19 7.93875 1180.77 8.89875C1181.37 9.83875 1181.67 10.9587 1181.67 12.2587C1181.67 13.5387 1181.37 14.6587 1180.77 15.6187C1180.19 16.5587 1179.39 17.2987 1178.37 17.8387C1177.37 18.3587 1176.23 18.6187 1174.95 18.6187H1169.1ZM1167.21 26.7188V5.89875H1170.03V26.7188H1167.21ZM1181.88 26.7188L1190.4 5.89875H1192.44L1200.93 26.7188H1197.87L1190.88 9.10875H1191.93L1184.88 26.7188H1181.88ZM1185.93 22.0087V19.5487H1196.88V22.0087H1185.93ZM1209.27 27.0188C1207.63 27.0188 1206.23 26.7188 1205.07 26.1187C1203.91 25.5187 1202.88 24.6487 1201.98 23.5087L1203.9 21.5887C1204.56 22.5087 1205.32 23.2087 1206.18 23.6887C1207.04 24.1487 1208.1 24.3787 1209.36 24.3787C1210.6 24.3787 1211.59 24.1087 1212.33 23.5687C1213.09 23.0287 1213.47 22.2887 1213.47 21.3487C1213.47 20.5687 1213.29 19.9387 1212.93 19.4587C1212.57 18.9787 1212.08 18.5887 1211.46 18.2887C1210.86 17.9687 1210.2 17.6887 1209.48 17.4487C1208.76 17.1887 1208.04 16.9187 1207.32 16.6387C1206.6 16.3387 1205.94 15.9787 1205.34 15.5587C1204.74 15.1187 1204.25 14.5487 1203.87 13.8487C1203.51 13.1487 1203.33 12.2687 1203.33 11.2087C1203.33 10.0287 1203.61 9.02875 1204.17 8.20875C1204.75 7.36875 1205.53 6.72875 1206.51 6.28875C1207.51 5.82875 1208.63 5.59875 1209.87 5.59875C1211.23 5.59875 1212.45 5.86875 1213.53 6.40875C1214.61 6.92875 1215.49 7.61875 1216.17 8.47875L1214.25 10.3987C1213.63 9.67875 1212.96 9.13875 1212.24 8.77875C1211.54 8.41875 1210.73 8.23875 1209.81 8.23875C1208.69 8.23875 1207.8 8.48875 1207.14 8.98875C1206.48 9.46875 1206.15 10.1487 1206.15 11.0287C1206.15 11.7287 1206.33 12.2987 1206.69 12.7387C1207.07 13.1587 1207.56 13.5187 1208.16 13.8187C1208.76 14.1187 1209.42 14.3987 1210.14 14.6587C1210.88 14.8987 1211.61 15.1687 1212.33 15.4687C1213.05 15.7687 1213.71 16.1487 1214.31 16.6087C1214.91 17.0687 1215.39 17.6687 1215.75 18.4087C1216.13 19.1287 1216.32 20.0387 1216.32 21.1387C1216.32 22.9787 1215.68 24.4187 1214.4 25.4587C1213.14 26.4987 1211.43 27.0188 1209.27 27.0188ZM1220.12 26.7188V5.89875H1222.94V26.7188H1220.12ZM1229.74 17.6587V15.2887H1235.38C1236.6 15.2887 1237.54 14.9787 1238.2 14.3587C1238.86 13.7387 1239.19 12.8987 1239.19 11.8387C1239.19 10.8387 1238.86 10.0087 1238.2 9.34875C1237.56 8.68875 1236.63 8.35875 1235.41 8.35875H1229.74V5.89875H1235.5C1236.82 5.89875 1237.97 6.15875 1238.95 6.67875C1239.93 7.17875 1240.68 7.86875 1241.2 8.74875C1241.74 9.62875 1242.01 10.6387 1242.01 11.7787C1242.01 12.9587 1241.74 13.9887 1241.2 14.8687C1240.68 15.7487 1239.93 16.4387 1238.95 16.9387C1237.97 17.4187 1236.82 17.6587 1235.5 17.6587H1229.74ZM1227.85 26.7188V5.89875H1230.67V26.7188H1227.85ZM1239.85 26.7188L1232.29 17.3887L1234.96 16.4587L1243.42 26.7188H1239.85Z" fill="black"/>
<path d="M606.448 27.0188C604.808 27.0188 603.408 26.7188 602.248 26.1187C601.088 25.5187 600.058 24.6487 599.158 23.5087L601.078 21.5887C601.738 22.5087 602.498 23.2087 603.358 23.6887C604.218 24.1487 605.278 24.3787 606.538 24.3787C607.778 24.3787 608.768 24.1087 609.508 23.5687C610.268 23.0287 610.648 22.2887 610.648 21.3487C610.648 20.5687 610.468 19.9387 610.108 19.4587C609.748 18.9787 609.258 18.5887 608.638 18.2887C608.038 17.9687 607.378 17.6887 606.658 17.4487C605.938 17.1887 605.218 16.9187 604.498 16.6387C603.778 16.3387 603.118 15.9787 602.518 15.5587C601.918 15.1187 601.428 14.5487 601.048 13.8487C600.688 13.1487 600.508 12.2687 600.508 11.2087C600.508 10.0287 600.788 9.02875 601.348 8.20875C601.928 7.36875 602.708 6.72875 603.688 6.28875C604.688 5.82875 605.808 5.59875 607.048 5.59875C608.408 5.59875 609.628 5.86875 610.708 6.40875C611.788 6.92875 612.668 7.61875 613.348 8.47875L611.428 10.3987C610.808 9.67875 610.138 9.13875 609.418 8.77875C608.718 8.41875 607.908 8.23875 606.988 8.23875C605.868 8.23875 604.978 8.48875 604.318 8.98875C603.658 9.46875 603.328 10.1487 603.328 11.0287C603.328 11.7287 603.508 12.2987 603.868 12.7387C604.248 13.1587 604.738 13.5187 605.338 13.8187C605.938 14.1187 606.598 14.3987 607.318 14.6587C608.058 14.8987 608.788 15.1687 609.508 15.4687C610.228 15.7687 610.888 16.1487 611.488 16.6087C612.088 17.0687 612.568 17.6687 612.928 18.4087C613.308 19.1287 613.498 20.0387 613.498 21.1387C613.498 22.9787 612.858 24.4187 611.578 25.4587C610.318 26.4987 608.608 27.0188 606.448 27.0188ZM621.852 26.7188V6.49875H624.672V26.7188H621.852ZM614.772 8.47875V5.89875H631.722V8.47875H614.772ZM635.082 26.7188V5.89875H637.902V26.7188H635.082ZM637.002 26.7188V24.1387H648.942V26.7188H637.002ZM637.002 17.2987V14.8387H647.952V17.2987H637.002ZM637.002 8.47875V5.89875H648.792V8.47875H637.002ZM659.177 26.7188L650.837 5.89875H653.897L660.767 23.5087H659.657L666.587 5.89875H669.617L661.217 26.7188H659.177ZM673.022 26.7188V5.89875H675.842V26.7188H673.022ZM679.226 26.7188L687.746 5.89875H689.786L698.276 26.7188H695.216L688.226 9.10875H689.276L682.226 26.7188H679.226ZM683.276 22.0087V19.5487H694.226V22.0087H683.276ZM712.087 26.7188V6.49875H714.907V26.7188H712.087ZM705.007 8.47875V5.89875H721.957V8.47875H705.007ZM725.317 26.7188V5.89875H728.137V26.7188H725.317ZM727.237 26.7188V24.1387H739.177V26.7188H727.237ZM727.237 17.2987V14.8387H738.187V17.2987H727.237ZM727.237 8.47875V5.89875H739.027V8.47875H727.237ZM747.741 26.7188V6.49875H750.561V26.7188H747.741ZM740.661 8.47875V5.89875H757.611V8.47875H740.661ZM760.971 26.7188V5.89875H763.791V26.7188H760.971ZM762.891 26.7188V24.1387H774.831V26.7188H762.891ZM762.891 17.2987V14.8387H773.841V17.2987H762.891ZM762.891 8.47875V5.89875H774.681V8.47875H762.891ZM783.929 27.0188C782.289 27.0188 780.889 26.7188 779.729 26.1187C778.569 25.5187 777.539 24.6487 776.639 23.5087L778.559 21.5887C779.219 22.5087 779.979 23.2087 780.839 23.6887C781.699 24.1487 782.759 24.3787 784.019 24.3787C785.259 24.3787 786.249 24.1087 786.989 23.5687C787.749 23.0287 788.129 22.2887 788.129 21.3487C788.129 20.5687 787.949 19.9387 787.589 19.4587C787.229 18.9787 786.739 18.5887 786.119 18.2887C785.519 17.9687 784.859 17.6887 784.139 17.4487C783.419 17.1887 782.699 16.9187 781.979 16.6387C781.259 16.3387 780.599 15.9787 779.999 15.5587C779.399 15.1187 778.909 14.5487 778.529 13.8487C778.169 13.1487 777.989 12.2687 777.989 11.2087C777.989 10.0287 778.269 9.02875 778.829 8.20875C779.409 7.36875 780.189 6.72875 781.169 6.28875C782.169 5.82875 783.289 5.59875 784.529 5.59875C785.889 5.59875 787.109 5.86875 788.189 6.40875C789.269 6.92875 790.149 7.61875 790.829 8.47875L788.909 10.3987C788.289 9.67875 787.619 9.13875 786.899 8.77875C786.199 8.41875 785.389 8.23875 784.469 8.23875C783.349 8.23875 782.459 8.48875 781.799 8.98875C781.139 9.46875 780.809 10.1487 780.809 11.0287C780.809 11.7287 780.989 12.2987 781.349 12.7387C781.729 13.1587 782.219 13.5187 782.819 13.8187C783.419 14.1187 784.079 14.3987 784.799 14.6587C785.539 14.8987 786.269 15.1687 786.989 15.4687C787.709 15.7687 788.369 16.1487 788.969 16.6087C789.569 17.0687 790.049 17.6687 790.409 18.4087C790.789 19.1287 790.979 20.0387 790.979 21.1387C790.979 22.9787 790.339 24.4187 789.059 25.4587C787.799 26.4987 786.089 27.0188 783.929 27.0188ZM805.19 30.1988C804.09 29.2788 803.15 28.1388 802.37 26.7788C801.59 25.4387 800.99 23.9687 800.57 22.3687C800.15 20.7687 799.94 19.1087 799.94 17.3887C799.94 15.6687 800.15 14.0087 800.57 12.4087C800.99 10.8087 801.59 9.33875 802.37 7.99875C803.15 6.63875 804.09 5.49875 805.19 4.57875L806.75 5.98875C805.33 7.22875 804.23 8.82875 803.45 10.7887C802.69 12.7487 802.31 14.9487 802.31 17.3887C802.31 19.8087 802.69 21.9987 803.45 23.9587C804.23 25.9187 805.33 27.5288 806.75 28.7888L805.19 30.1988ZM811.992 18.6187V16.1587H817.662C818.442 16.1587 819.132 15.9987 819.732 15.6787C820.352 15.3587 820.832 14.9087 821.172 14.3287C821.532 13.7487 821.712 13.0587 821.712 12.2587C821.712 11.4587 821.532 10.7687 821.172 10.1888C820.832 9.60875 820.352 9.15875 819.732 8.83875C819.132 8.51875 818.442 8.35875 817.662 8.35875H811.992V5.89875H817.842C819.122 5.89875 820.262 6.15875 821.262 6.67875C822.282 7.19875 823.082 7.93875 823.662 8.89875C824.262 9.83875 824.562 10.9587 824.562 12.2587C824.562 13.5387 824.262 14.6587 823.662 15.6187C823.082 16.5587 822.282 17.2987 821.262 17.8387C820.262 18.3587 819.122 18.6187 817.842 18.6187H811.992ZM810.102 26.7188V5.89875H812.922V26.7188H810.102ZM829.951 17.6587V15.2887H835.591C836.811 15.2887 837.751 14.9787 838.411 14.3587C839.071 13.7387 839.401 12.8987 839.401 11.8387C839.401 10.8387 839.071 10.0087 838.411 9.34875C837.771 8.68875 836.841 8.35875 835.621 8.35875H829.951V5.89875H835.711C837.031 5.89875 838.181 6.15875 839.161 6.67875C840.141 7.17875 840.891 7.86875 841.411 8.74875C841.951 9.62875 842.221 10.6387 842.221 11.7787C842.221 12.9587 841.951 13.9887 841.411 14.8687C840.891 15.7487 840.141 16.4387 839.161 16.9387C838.181 17.4187 837.031 17.6587 835.711 17.6587H829.951ZM828.061 26.7188V5.89875H830.881V26.7188H828.061ZM840.061 26.7188L832.501 17.3887L835.171 16.4587L843.631 26.7188H840.061ZM855.705 27.0188C854.225 27.0188 852.845 26.7488 851.565 26.2087C850.285 25.6487 849.165 24.8787 848.205 23.8987C847.245 22.8987 846.495 21.7487 845.955 20.4487C845.435 19.1487 845.175 17.7587 845.175 16.2787C845.175 14.7787 845.435 13.3887 845.955 12.1087C846.495 10.8087 847.235 9.66875 848.175 8.68875C849.135 7.70875 850.245 6.94875 851.505 6.40875C852.785 5.86875 854.165 5.59875 855.645 5.59875C857.125 5.59875 858.495 5.86875 859.755 6.40875C861.035 6.94875 862.155 7.70875 863.115 8.68875C864.075 9.66875 864.825 10.8087 865.365 12.1087C865.905 13.4087 866.175 14.8087 866.175 16.3087C866.175 17.7887 865.905 19.1787 865.365 20.4787C864.825 21.7787 864.075 22.9187 863.115 23.8987C862.175 24.8787 861.065 25.6487 859.785 26.2087C858.525 26.7488 857.165 27.0188 855.705 27.0188ZM855.645 24.3187C857.145 24.3187 858.455 23.9787 859.575 23.2987C860.715 22.5987 861.615 21.6487 862.275 20.4487C862.935 19.2287 863.265 17.8387 863.265 16.2787C863.265 15.1187 863.075 14.0587 862.695 13.0987C862.315 12.1187 861.785 11.2687 861.105 10.5487C860.425 9.82875 859.625 9.27875 858.705 8.89875C857.785 8.49875 856.765 8.29875 855.645 8.29875C854.165 8.29875 852.855 8.63875 851.715 9.31875C850.595 9.99875 849.705 10.9387 849.045 12.1387C848.405 13.3387 848.085 14.7187 848.085 16.2787C848.085 17.4387 848.265 18.5187 848.625 19.5187C849.005 20.4987 849.525 21.3487 850.185 22.0687C850.865 22.7687 851.665 23.3187 852.585 23.7187C853.525 24.1187 854.545 24.3187 855.645 24.3187ZM871.903 26.7188V24.1387H877.693C879.233 24.1387 880.583 23.8087 881.743 23.1487C882.903 22.4687 883.803 21.5387 884.443 20.3587C885.103 19.1787 885.433 17.8187 885.433 16.2787C885.433 14.7587 885.103 13.4087 884.443 12.2287C883.783 11.0487 882.873 10.1287 881.713 9.46875C880.553 8.80875 879.213 8.47875 877.693 8.47875H871.933V5.89875H877.753C879.273 5.89875 880.673 6.15875 881.953 6.67875C883.253 7.19875 884.373 7.92875 885.313 8.86875C886.273 9.80875 887.013 10.9087 887.533 12.1687C888.073 13.4287 888.343 14.8087 888.343 16.3087C888.343 17.7887 888.073 19.1687 887.533 20.4487C887.013 21.7087 886.283 22.8087 885.343 23.7487C884.403 24.6887 883.283 25.4187 881.983 25.9387C880.703 26.4587 879.313 26.7188 877.813 26.7188H871.903ZM870.043 26.7188V5.89875H872.863V26.7188H870.043ZM900.05 27.0188C898.51 27.0188 897.13 26.6788 895.91 25.9987C894.71 25.2987 893.76 24.3487 893.06 23.1487C892.36 21.9287 892.01 20.5487 892.01 19.0088V5.89875H894.83V18.9487C894.83 20.0487 895.06 20.9987 895.52 21.7987C895.98 22.5987 896.6 23.2187 897.38 23.6587C898.18 24.0987 899.07 24.3187 900.05 24.3187C901.07 24.3187 901.96 24.0987 902.72 23.6587C903.5 23.2187 904.11 22.5987 904.55 21.7987C905.01 20.9987 905.24 20.0587 905.24 18.9787V5.89875H908.09V19.0387C908.09 20.5787 907.74 21.9487 907.04 23.1487C906.34 24.3487 905.39 25.2987 904.19 25.9987C902.99 26.6788 901.61 27.0188 900.05 27.0188ZM925.599 26.7188L915.099 15.8587L925.389 5.89875H929.049L917.949 16.5787V15.0187L929.349 26.7188H925.599ZM912.729 26.7188V5.89875H915.549V26.7188H912.729ZM938.1 26.7188V5.89875H940.92V26.7188H938.1ZM940.02 26.7188V24.1387H951.18V26.7188H940.02ZM952.361 26.7188L960.881 5.89875H962.921L971.411 26.7188H968.351L961.361 9.10875H962.411L955.361 26.7188H952.361ZM956.411 22.0087V19.5487H967.361V22.0087H956.411ZM974.545 26.7188V5.89875H977.365V26.7188H974.545ZM982.28 26.7188V5.89875H984.26L985.1 9.16875V26.7188H982.28ZM996.68 26.7188L983.9 9.64875L984.26 5.89875L997.07 22.9387L996.68 26.7188ZM996.68 26.7188L995.84 23.6287V5.89875H998.66V26.7188H996.68ZM1003.58 30.1988L1002.02 28.7888C1003.44 27.5288 1004.53 25.9187 1005.29 23.9587C1006.05 21.9987 1006.43 19.8087 1006.43 17.3887C1006.43 14.9487 1006.05 12.7487 1005.29 10.7887C1004.53 8.82875 1003.44 7.22875 1002.02 5.98875L1003.58 4.57875C1004.68 5.49875 1005.62 6.63875 1006.4 7.99875C1007.18 9.33875 1007.78 10.8087 1008.2 12.4087C1008.62 14.0087 1008.83 15.6687 1008.83 17.3887C1008.83 19.1087 1008.62 20.7687 1008.2 22.3687C1007.78 23.9687 1007.18 25.4387 1006.4 26.7788C1005.62 28.1388 1004.68 29.2788 1003.58 30.1988Z" fill="black"/>
<rect x="0.339844" y="46.7363" width="254.858" height="90.218" fill="#F2F2F2"/>
<rect x="263.902" y="46.7363" width="300.073" height="90.218" fill="#3A795E"/>
<rect x="572.336" y="46.7363" width="463.7" height="90.218" fill="#31654F"/>
<rect x="1043.95" y="46.7363" width="235.388" height="90.218" fill="#F6E0AF"/>
<path d="M32.4886 102.971L41.0086 82.1507H43.0486L51.5386 102.971H48.4786L41.4886 85.3607H42.5386L35.4886 102.971H32.4886ZM36.5386 98.2607V95.8007H47.4886V98.2607H36.5386ZM59.877 103.271C58.237 103.271 56.837 102.971 55.677 102.371C54.517 101.771 53.487 100.901 52.587 99.7607L54.507 97.8407C55.167 98.7607 55.927 99.4607 56.787 99.9407C57.647 100.401 58.707 100.631 59.967 100.631C61.207 100.631 62.197 100.361 62.937 99.8207C63.697 99.2807 64.077 98.5407 64.077 97.6007C64.077 96.8207 63.897 96.1907 63.537 95.7107C63.177 95.2307 62.687 94.8407 62.067 94.5407C61.467 94.2207 60.807 93.9407 60.087 93.7007C59.367 93.4407 58.647 93.1707 57.927 92.8907C57.207 92.5907 56.547 92.2307 55.947 91.8107C55.347 91.3707 54.857 90.8007 54.477 90.1007C54.117 89.4007 53.937 88.5207 53.937 87.4607C53.937 86.2807 54.217 85.2807 54.777 84.4607C55.357 83.6207 56.137 82.9807 57.117 82.5407C58.117 82.0807 59.237 81.8507 60.477 81.8507C61.837 81.8507 63.057 82.1207 64.137 82.6607C65.217 83.1807 66.097 83.8707 66.777 84.7307L64.857 86.6507C64.237 85.9307 63.567 85.3907 62.847 85.0307C62.147 84.6707 61.337 84.4907 60.417 84.4907C59.297 84.4907 58.407 84.7407 57.747 85.2407C57.087 85.7207 56.757 86.4007 56.757 87.2807C56.757 87.9807 56.937 88.5507 57.297 88.9907C57.677 89.4107 58.167 89.7707 58.767 90.0707C59.367 90.3707 60.027 90.6507 60.747 90.9107C61.487 91.1507 62.217 91.4207 62.937 91.7207C63.657 92.0207 64.317 92.4007 64.917 92.8607C65.517 93.3207 65.997 93.9207 66.357 94.6607C66.737 95.3807 66.927 96.2907 66.927 97.3907C66.927 99.2307 66.287 100.671 65.007 101.711C63.747 102.751 62.037 103.271 59.877 103.271ZM68.5238 102.971L77.0438 82.1507H79.0838L87.5738 102.971H84.5138L77.5238 85.3607H78.5738L71.5238 102.971H68.5238ZM72.5738 98.2607V95.8007H83.5238V98.2607H72.5738ZM90.708 102.971V82.1507H93.528V102.971H90.708ZM92.628 102.971V100.391H103.788V102.971H92.628ZM115.157 102.971V100.511H121.457C122.657 100.511 123.597 100.161 124.277 99.4607C124.957 98.7407 125.297 97.8807 125.297 96.8807C125.297 96.2007 125.147 95.5907 124.847 95.0507C124.547 94.4907 124.107 94.0507 123.527 93.7307C122.967 93.4107 122.307 93.2507 121.547 93.2507H115.157V90.7907H121.127C122.127 90.7907 122.917 90.5307 123.497 90.0107C124.097 89.4707 124.397 88.7007 124.397 87.7007C124.397 86.7007 124.087 85.9407 123.467 85.4207C122.847 84.8807 122.027 84.6107 121.007 84.6107H115.157V82.1507H121.067C122.427 82.1507 123.557 82.4007 124.457 82.9007C125.377 83.3807 126.067 84.0207 126.527 84.8207C127.007 85.6207 127.247 86.5007 127.247 87.4607C127.247 88.5807 126.937 89.5607 126.317 90.4007C125.717 91.2407 124.827 91.9007 123.647 92.3807L123.887 91.4807C125.227 91.9607 126.267 92.6907 127.007 93.6707C127.767 94.6307 128.147 95.7707 128.147 97.0907C128.147 98.1907 127.877 99.1807 127.337 100.061C126.797 100.941 126.017 101.651 124.997 102.191C123.997 102.711 122.767 102.971 121.307 102.971H115.157ZM113.267 102.971V82.1507H116.087V102.971H113.267ZM130.428 102.971L138.948 82.1507H140.988L149.478 102.971H146.418L139.428 85.3607H140.478L133.428 102.971H130.428ZM134.478 98.2607V95.8007H145.428V98.2607H134.478ZM152.612 102.971V82.1507H155.432V102.971H152.612ZM166.052 102.971V82.1507H168.872V102.971H166.052ZM154.532 93.4907V90.9107H166.742V93.4907H154.532ZM172.264 102.971L180.784 82.1507H182.824L191.314 102.971H188.254L181.264 85.3607H182.314L175.264 102.971H172.264ZM176.314 98.2607V95.8007H187.264V98.2607H176.314ZM194.448 102.971V82.1507H196.428L197.268 85.4207V102.971H194.448ZM208.848 102.971L196.068 85.9007L196.428 82.1507L209.238 99.1907L208.848 102.971ZM208.848 102.971L208.008 99.8807V82.1507H210.828V102.971H208.848Z" fill="black"/>
<path d="M383.867 102.971V82.7507H386.687V102.971H383.867ZM376.787 84.7307V82.1507H393.737V84.7307H376.787ZM397.097 102.971V82.1507H399.917V102.971H397.097ZM399.017 102.971V100.391H410.957V102.971H399.017ZM399.017 93.5507V91.0907H409.967V93.5507H399.017ZM399.017 84.7307V82.1507H410.807V84.7307H399.017ZM416.682 102.971V100.511H422.982C424.182 100.511 425.122 100.161 425.802 99.4607C426.482 98.7407 426.822 97.8807 426.822 96.8807C426.822 96.2007 426.672 95.5907 426.372 95.0507C426.072 94.4907 425.632 94.0507 425.052 93.7307C424.492 93.4107 423.832 93.2507 423.072 93.2507H416.682V90.7907H422.652C423.652 90.7907 424.442 90.5307 425.022 90.0107C425.622 89.4707 425.922 88.7007 425.922 87.7007C425.922 86.7007 425.612 85.9407 424.992 85.4207C424.372 84.8807 423.552 84.6107 422.532 84.6107H416.682V82.1507H422.592C423.952 82.1507 425.082 82.4007 425.982 82.9007C426.902 83.3807 427.592 84.0207 428.052 84.8207C428.532 85.6207 428.772 86.5007 428.772 87.4607C428.772 88.5807 428.462 89.5607 427.842 90.4007C427.242 91.2407 426.352 91.9007 425.172 92.3807L425.412 91.4807C426.752 91.9607 427.792 92.6907 428.532 93.6707C429.292 94.6307 429.672 95.7707 429.672 97.0907C429.672 98.1907 429.402 99.1807 428.862 100.061C428.322 100.941 427.542 101.651 426.522 102.191C425.522 102.711 424.292 102.971 422.832 102.971H416.682ZM414.792 102.971V82.1507H417.612V102.971H414.792ZM441.283 103.271C439.743 103.271 438.363 102.931 437.143 102.251C435.943 101.551 434.993 100.601 434.293 99.4007C433.593 98.1807 433.243 96.8007 433.243 95.2607V82.1507H436.063V95.2007C436.063 96.3007 436.293 97.2507 436.753 98.0507C437.213 98.8507 437.833 99.4707 438.613 99.9107C439.413 100.351 440.303 100.571 441.283 100.571C442.303 100.571 443.193 100.351 443.953 99.9107C444.733 99.4707 445.343 98.8507 445.783 98.0507C446.243 97.2507 446.473 96.3107 446.473 95.2307V82.1507H449.323V95.2907C449.323 96.8307 448.973 98.2007 448.273 99.4007C447.573 100.601 446.623 101.551 445.423 102.251C444.223 102.931 442.843 103.271 441.283 103.271Z" fill="white"/>
<path d="M665.785 102.971V100.391H671.575C673.115 100.391 674.465 100.061 675.625 99.4007C676.785 98.7207 677.685 97.7907 678.325 96.6107C678.985 95.4307 679.315 94.0707 679.315 92.5307C679.315 91.0107 678.985 89.6607 678.325 88.4807C677.665 87.3007 676.755 86.3807 675.595 85.7207C674.435 85.0607 673.095 84.7307 671.575 84.7307H665.815V82.1507H671.635C673.155 82.1507 674.555 82.4107 675.835 82.9307C677.135 83.4507 678.255 84.1807 679.195 85.1207C680.155 86.0607 680.895 87.1607 681.415 88.4207C681.955 89.6807 682.225 91.0607 682.225 92.5607C682.225 94.0407 681.955 95.4207 681.415 96.7007C680.895 97.9607 680.165 99.0607 679.225 100.001C678.285 100.941 677.165 101.671 675.865 102.191C674.585 102.711 673.195 102.971 671.695 102.971H665.785ZM663.925 102.971V82.1507H666.745V102.971H663.925ZM684.602 102.971L693.122 82.1507H695.162L703.652 102.971H700.592L693.602 85.3607H694.652L687.602 102.971H684.602ZM688.652 98.2607V95.8007H699.602V98.2607H688.652ZM714.352 103.271C712.812 103.271 711.432 102.931 710.212 102.251C709.012 101.551 708.062 100.601 707.362 99.4007C706.662 98.1807 706.312 96.8007 706.312 95.2607V82.1507H709.132V95.2007C709.132 96.3007 709.362 97.2507 709.822 98.0507C710.282 98.8507 710.902 99.4707 711.682 99.9107C712.482 100.351 713.372 100.571 714.352 100.571C715.372 100.571 716.262 100.351 717.022 99.9107C717.802 99.4707 718.412 98.8507 718.852 98.0507C719.312 97.2507 719.542 96.3107 719.542 95.2307V82.1507H722.392V95.2907C722.392 96.8307 722.042 98.2007 721.342 99.4007C720.642 100.601 719.692 101.551 718.492 102.251C717.292 102.931 715.912 103.271 714.352 103.271ZM727.03 102.971V82.1507H729.01L729.85 85.4207V102.971H727.03ZM741.43 102.971L728.65 85.9007L729.01 82.1507L741.82 99.1907L741.43 102.971ZM741.43 102.971L740.59 99.8807V82.1507H743.41V102.971H741.43ZM760.359 103.271C758.719 103.271 757.319 102.971 756.159 102.371C754.999 101.771 753.969 100.901 753.069 99.7607L754.989 97.8407C755.649 98.7607 756.409 99.4607 757.269 99.9407C758.129 100.401 759.189 100.631 760.449 100.631C761.689 100.631 762.679 100.361 763.419 99.8207C764.179 99.2807 764.559 98.5407 764.559 97.6007C764.559 96.8207 764.379 96.1907 764.019 95.7107C763.659 95.2307 763.169 94.8407 762.549 94.5407C761.949 94.2207 761.289 93.9407 760.569 93.7007C759.849 93.4407 759.129 93.1707 758.409 92.8907C757.689 92.5907 757.029 92.2307 756.429 91.8107C755.829 91.3707 755.339 90.8007 754.959 90.1007C754.599 89.4007 754.419 88.5207 754.419 87.4607C754.419 86.2807 754.699 85.2807 755.259 84.4607C755.839 83.6207 756.619 82.9807 757.599 82.5407C758.599 82.0807 759.719 81.8507 760.959 81.8507C762.319 81.8507 763.539 82.1207 764.619 82.6607C765.699 83.1807 766.579 83.8707 767.259 84.7307L765.339 86.6507C764.719 85.9307 764.049 85.3907 763.329 85.0307C762.629 84.6707 761.819 84.4907 760.899 84.4907C759.779 84.4907 758.889 84.7407 758.229 85.2407C757.569 85.7207 757.239 86.4007 757.239 87.2807C757.239 87.9807 757.419 88.5507 757.779 88.9907C758.159 89.4107 758.649 89.7707 759.249 90.0707C759.849 90.3707 760.509 90.6507 761.229 90.9107C761.969 91.1507 762.699 91.4207 763.419 91.7207C764.139 92.0207 764.799 92.4007 765.399 92.8607C765.999 93.3207 766.479 93.9207 766.839 94.6607C767.219 95.3807 767.409 96.2907 767.409 97.3907C767.409 99.2307 766.769 100.671 765.489 101.711C764.229 102.751 762.519 103.271 760.359 103.271ZM775.763 102.971V82.7507H778.583V102.971H775.763ZM768.683 84.7307V82.1507H785.633V84.7307H768.683ZM788.993 102.971V82.1507H791.813V102.971H788.993ZM790.913 102.971V100.391H802.853V102.971H790.913ZM790.913 93.5507V91.0907H801.863V93.5507H790.913ZM790.913 84.7307V82.1507H802.703V84.7307H790.913ZM813.088 102.971L804.748 82.1507H807.808L814.678 99.7607H813.568L820.498 82.1507H823.528L815.128 102.971H813.088ZM826.933 102.971V82.1507H829.753V102.971H826.933ZM833.137 102.971L841.657 82.1507H843.697L852.187 102.971H849.127L842.137 85.3607H843.187L836.137 102.971H833.137ZM837.187 98.2607V95.8007H848.137V98.2607H837.187ZM853.516 104.171L861.856 80.9807H864.376L856.066 104.171H853.516ZM880.525 102.971L870.025 92.1107L880.315 82.1507H883.975L872.875 92.8307V91.2707L884.275 102.971H880.525ZM867.655 102.971V82.1507H870.475V102.971H867.655ZM887.108 102.971V82.1507H889.928V102.971H887.108ZM894.843 102.971V82.1507H896.823L905.643 96.6407H904.293L913.113 82.1507H915.093V102.971H912.273V87.1007L912.933 87.2807L905.973 98.7107H903.993L897.033 87.2807L897.663 87.1007V102.971H894.843ZM920.009 102.971V82.1507H922.829V102.971H920.009ZM926.213 102.971L934.733 82.1507H936.773L945.263 102.971H942.203L935.213 85.3607H936.263L929.213 102.971H926.213ZM930.263 98.2607V95.8007H941.213V98.2607H930.263Z" fill="white"/>
<path d="M1131.55 102.971V82.7507H1134.37V102.971H1131.55ZM1124.47 84.7307V82.1507H1141.42V84.7307H1124.47ZM1144.78 102.971V82.1507H1147.6V102.971H1144.78ZM1146.7 102.971V100.391H1158.64V102.971H1146.7ZM1146.7 93.5507V91.0907H1157.65V93.5507H1146.7ZM1146.7 84.7307V82.1507H1158.49V84.7307H1146.7ZM1164.37 102.971V100.511H1170.67C1171.87 100.511 1172.81 100.161 1173.49 99.4607C1174.17 98.7407 1174.51 97.8807 1174.51 96.8807C1174.51 96.2007 1174.36 95.5907 1174.06 95.0507C1173.76 94.4907 1173.32 94.0507 1172.74 93.7307C1172.18 93.4107 1171.52 93.2507 1170.76 93.2507H1164.37V90.7907H1170.34C1171.34 90.7907 1172.13 90.5307 1172.71 90.0107C1173.31 89.4707 1173.61 88.7007 1173.61 87.7007C1173.61 86.7007 1173.3 85.9407 1172.68 85.4207C1172.06 84.8807 1171.24 84.6107 1170.22 84.6107H1164.37V82.1507H1170.28C1171.64 82.1507 1172.77 82.4007 1173.67 82.9007C1174.59 83.3807 1175.28 84.0207 1175.74 84.8207C1176.22 85.6207 1176.46 86.5007 1176.46 87.4607C1176.46 88.5807 1176.15 89.5607 1175.53 90.4007C1174.93 91.2407 1174.04 91.9007 1172.86 92.3807L1173.1 91.4807C1174.44 91.9607 1175.48 92.6907 1176.22 93.6707C1176.98 94.6307 1177.36 95.7707 1177.36 97.0907C1177.36 98.1907 1177.09 99.1807 1176.55 100.061C1176.01 100.941 1175.23 101.651 1174.21 102.191C1173.21 102.711 1171.98 102.971 1170.52 102.971H1164.37ZM1162.48 102.971V82.1507H1165.3V102.971H1162.48ZM1188.97 103.271C1187.43 103.271 1186.05 102.931 1184.83 102.251C1183.63 101.551 1182.68 100.601 1181.98 99.4007C1181.28 98.1807 1180.93 96.8007 1180.93 95.2607V82.1507H1183.75V95.2007C1183.75 96.3007 1183.98 97.2507 1184.44 98.0507C1184.9 98.8507 1185.52 99.4707 1186.3 99.9107C1187.1 100.351 1187.99 100.571 1188.97 100.571C1189.99 100.571 1190.88 100.351 1191.64 99.9107C1192.42 99.4707 1193.03 98.8507 1193.47 98.0507C1193.93 97.2507 1194.16 96.3107 1194.16 95.2307V82.1507H1197.01V95.2907C1197.01 96.8307 1196.66 98.2007 1195.96 99.4007C1195.26 100.601 1194.31 101.551 1193.11 102.251C1191.91 102.931 1190.53 103.271 1188.97 103.271Z" fill="black"/>
<rect x="0.339844" y="160.865" width="254.858" height="90.218" fill="#F2F2F2"/>
<rect x="263.902" y="160.865" width="300.073" height="90.218" fill="#3A795E"/>
<rect x="572.336" y="160.865" width="463.7" height="90.218" fill="#31654F"/>
<rect x="1043.95" y="160.865" width="235.388" height="90.218" fill="#F6E0AF"/>
<path d="M46.8886 217.1L36.3886 206.24L46.6786 196.28H50.3386L39.2386 206.96V205.4L50.6386 217.1H46.8886ZM34.0186 217.1V196.28H36.8386V217.1H34.0186ZM51.3265 217.1L59.8465 196.28H61.8865L70.3765 217.1H67.3165L60.3265 199.49H61.3765L54.3265 217.1H51.3265ZM55.3765 212.39V209.93H66.3265V212.39H55.3765ZM73.5108 217.1V196.28H76.3308V217.1H73.5108ZM75.4308 217.1V214.52H86.5908V217.1H75.4308ZM97.7564 217.4C96.2764 217.4 94.8964 217.13 93.6164 216.59C92.3364 216.03 91.2164 215.26 90.2564 214.28C89.2964 213.28 88.5464 212.13 88.0064 210.83C87.4864 209.53 87.2264 208.14 87.2264 206.66C87.2264 205.16 87.4864 203.77 88.0064 202.49C88.5464 201.19 89.2864 200.05 90.2264 199.07C91.1864 198.09 92.2964 197.33 93.5564 196.79C94.8364 196.25 96.2164 195.98 97.6964 195.98C99.1764 195.98 100.546 196.25 101.806 196.79C103.086 197.33 104.206 198.09 105.166 199.07C106.126 200.05 106.876 201.19 107.416 202.49C107.956 203.79 108.226 205.19 108.226 206.69C108.226 208.17 107.956 209.56 107.416 210.86C106.876 212.16 106.126 213.3 105.166 214.28C104.226 215.26 103.116 216.03 101.836 216.59C100.576 217.13 99.2164 217.4 97.7564 217.4ZM97.6964 214.7C99.1964 214.7 100.506 214.36 101.626 213.68C102.766 212.98 103.666 212.03 104.326 210.83C104.986 209.61 105.316 208.22 105.316 206.66C105.316 205.5 105.126 204.44 104.746 203.48C104.366 202.5 103.836 201.65 103.156 200.93C102.476 200.21 101.676 199.66 100.756 199.28C99.8364 198.88 98.8164 198.68 97.6964 198.68C96.2164 198.68 94.9064 199.02 93.7664 199.7C92.6464 200.38 91.7564 201.32 91.0964 202.52C90.4564 203.72 90.1364 205.1 90.1364 206.66C90.1364 207.82 90.3164 208.9 90.6764 209.9C91.0564 210.88 91.5764 211.73 92.2364 212.45C92.9164 213.15 93.7164 213.7 94.6364 214.1C95.5764 214.5 96.5964 214.7 97.6964 214.7ZM113.985 208.04V205.67H119.625C120.845 205.67 121.785 205.36 122.445 204.74C123.105 204.12 123.435 203.28 123.435 202.22C123.435 201.22 123.105 200.39 122.445 199.73C121.805 199.07 120.875 198.74 119.655 198.74H113.985V196.28H119.745C121.065 196.28 122.215 196.54 123.195 197.06C124.175 197.56 124.925 198.25 125.445 199.13C125.985 200.01 126.255 201.02 126.255 202.16C126.255 203.34 125.985 204.37 125.445 205.25C124.925 206.13 124.175 206.82 123.195 207.32C122.215 207.8 121.065 208.04 119.745 208.04H113.985ZM112.095 217.1V196.28H114.915V217.1H112.095ZM124.095 217.1L116.535 207.77L119.205 206.84L127.665 217.1H124.095ZM130.581 217.1V196.28H133.401V217.1H130.581ZM136.686 218.3L145.026 195.11H147.546L139.236 218.3H136.686ZM155.935 217.1V196.88H158.755V217.1H155.935ZM148.855 198.86V196.28H165.805V198.86H148.855ZM169.165 217.1V196.28H171.985V217.1H169.165ZM171.085 217.1V214.52H183.025V217.1H171.085ZM171.085 207.68V205.22H182.035V207.68H171.085ZM171.085 198.86V196.28H182.875V198.86H171.085ZM191.589 217.1V196.88H194.409V217.1H191.589ZM184.509 198.86V196.28H201.459V198.86H184.509ZM204.819 217.1V196.28H207.639V217.1H204.819ZM206.739 217.1V214.52H218.679V217.1H206.739ZM206.739 207.68V205.22H217.689V207.68H206.739ZM206.739 198.86V196.28H218.529V198.86H206.739ZM227.777 217.4C226.137 217.4 224.737 217.1 223.577 216.5C222.417 215.9 221.387 215.03 220.487 213.89L222.407 211.97C223.067 212.89 223.827 213.59 224.687 214.07C225.547 214.53 226.607 214.76 227.867 214.76C229.107 214.76 230.097 214.49 230.837 213.95C231.597 213.41 231.977 212.67 231.977 211.73C231.977 210.95 231.797 210.32 231.437 209.84C231.077 209.36 230.587 208.97 229.967 208.67C229.367 208.35 228.707 208.07 227.987 207.83C227.267 207.57 226.547 207.3 225.827 207.02C225.107 206.72 224.447 206.36 223.847 205.94C223.247 205.5 222.757 204.93 222.377 204.23C222.017 203.53 221.837 202.65 221.837 201.59C221.837 200.41 222.117 199.41 222.677 198.59C223.257 197.75 224.037 197.11 225.017 196.67C226.017 196.21 227.137 195.98 228.377 195.98C229.737 195.98 230.957 196.25 232.037 196.79C233.117 197.31 233.997 198 234.677 198.86L232.757 200.78C232.137 200.06 231.467 199.52 230.747 199.16C230.047 198.8 229.237 198.62 228.317 198.62C227.197 198.62 226.307 198.87 225.647 199.37C224.987 199.85 224.657 200.53 224.657 201.41C224.657 202.11 224.837 202.68 225.197 203.12C225.577 203.54 226.067 203.9 226.667 204.2C227.267 204.5 227.927 204.78 228.647 205.04C229.387 205.28 230.117 205.55 230.837 205.85C231.557 206.15 232.217 206.53 232.817 206.99C233.417 207.45 233.897 208.05 234.257 208.79C234.637 209.51 234.827 210.42 234.827 211.52C234.827 213.36 234.187 214.8 232.907 215.84C231.647 216.88 229.937 217.4 227.777 217.4Z" fill="black"/>
<path d="M413.628 217.102V196.282H416.418V217.102H413.628ZM409.368 198.802V196.282H416.118V198.802H409.368Z" fill="white"/>
<path d="M789.537 217.402C787.977 217.402 786.547 216.962 785.247 216.082C783.967 215.202 782.947 213.962 782.187 212.362C781.427 210.742 781.047 208.842 781.047 206.662C781.047 204.482 781.417 202.592 782.157 200.992C782.917 199.392 783.937 198.162 785.217 197.302C786.497 196.422 787.907 195.982 789.447 195.982C791.027 195.982 792.457 196.422 793.737 197.302C795.017 198.162 796.027 199.392 796.767 200.992C797.527 202.592 797.907 204.492 797.907 206.692C797.907 208.872 797.527 210.772 796.767 212.392C796.027 213.992 795.017 215.232 793.737 216.112C792.477 216.972 791.077 217.402 789.537 217.402ZM789.477 214.732C790.577 214.732 791.537 214.432 792.357 213.832C793.197 213.212 793.857 212.302 794.337 211.102C794.817 209.902 795.057 208.422 795.057 206.662C795.057 204.902 794.817 203.432 794.337 202.252C793.857 201.052 793.197 200.152 792.357 199.552C791.517 198.932 790.547 198.622 789.447 198.622C788.367 198.622 787.407 198.932 786.567 199.552C785.727 200.152 785.067 201.052 784.587 202.252C784.127 203.432 783.897 204.902 783.897 206.662C783.897 208.422 784.127 209.902 784.587 211.102C785.067 212.302 785.727 213.212 786.567 213.832C787.407 214.432 788.377 214.732 789.477 214.732ZM801.304 210.742V208.192H811.174V210.742H801.304ZM813.293 215.392L820.973 207.292C821.753 206.492 822.363 205.802 822.803 205.222C823.243 204.622 823.553 204.072 823.733 203.572C823.933 203.072 824.033 202.552 824.033 202.012C824.033 200.952 823.693 200.122 823.013 199.522C822.333 198.922 821.453 198.622 820.373 198.622C819.313 198.622 818.383 198.882 817.583 199.402C816.783 199.902 816.073 200.682 815.453 201.742L813.473 200.092C814.293 198.732 815.283 197.712 816.443 197.032C817.603 196.332 818.943 195.982 820.463 195.982C821.743 195.982 822.853 196.232 823.793 196.732C824.753 197.232 825.493 197.932 826.013 198.832C826.533 199.732 826.793 200.782 826.793 201.982C826.793 202.842 826.683 203.612 826.463 204.292C826.263 204.972 825.893 205.672 825.353 206.392C824.833 207.092 824.103 207.932 823.163 208.912L816.953 215.302L813.293 215.392ZM813.293 217.102V215.392L815.693 214.582H827.273V217.102H813.293Z" fill="white"/>
<path d="M1120.56 215.392L1128.24 207.292C1129.02 206.492 1129.63 205.802 1130.07 205.222C1130.51 204.622 1130.82 204.072 1131 203.572C1131.2 203.072 1131.3 202.552 1131.3 202.012C1131.3 200.952 1130.96 200.122 1130.28 199.522C1129.6 198.922 1128.72 198.622 1127.64 198.622C1126.58 198.622 1125.65 198.882 1124.85 199.402C1124.05 199.902 1123.34 200.682 1122.72 201.742L1120.74 200.092C1121.56 198.732 1122.55 197.712 1123.71 197.032C1124.87 196.332 1126.21 195.982 1127.73 195.982C1129.01 195.982 1130.12 196.232 1131.06 196.732C1132.02 197.232 1132.76 197.932 1133.28 198.832C1133.8 199.732 1134.06 200.782 1134.06 201.982C1134.06 202.842 1133.95 203.612 1133.73 204.292C1133.53 204.972 1133.16 205.672 1132.62 206.392C1132.1 207.092 1131.37 207.932 1130.43 208.912L1124.22 215.302L1120.56 215.392ZM1120.56 217.102V215.392L1122.96 214.582H1134.54V217.102H1120.56ZM1145.7 217.402C1144.14 217.402 1142.71 216.962 1141.41 216.082C1140.13 215.202 1139.11 213.962 1138.35 212.362C1137.59 210.742 1137.21 208.842 1137.21 206.662C1137.21 204.482 1137.58 202.592 1138.32 200.992C1139.08 199.392 1140.1 198.162 1141.38 197.302C1142.66 196.422 1144.07 195.982 1145.61 195.982C1147.19 195.982 1148.62 196.422 1149.9 197.302C1151.18 198.162 1152.19 199.392 1152.93 200.992C1153.69 202.592 1154.07 204.492 1154.07 206.692C1154.07 208.872 1153.69 210.772 1152.93 212.392C1152.19 213.992 1151.18 215.232 1149.9 216.112C1148.64 216.972 1147.24 217.402 1145.7 217.402ZM1145.64 214.732C1146.74 214.732 1147.7 214.432 1148.52 213.832C1149.36 213.212 1150.02 212.302 1150.5 211.102C1150.98 209.902 1151.22 208.422 1151.22 206.662C1151.22 204.902 1150.98 203.432 1150.5 202.252C1150.02 201.052 1149.36 200.152 1148.52 199.552C1147.68 198.932 1146.71 198.622 1145.61 198.622C1144.53 198.622 1143.57 198.932 1142.73 199.552C1141.89 200.152 1141.23 201.052 1140.75 202.252C1140.29 203.432 1140.06 204.902 1140.06 206.662C1140.06 208.422 1140.29 209.902 1140.75 211.102C1141.23 212.302 1141.89 213.212 1142.73 213.832C1143.57 214.432 1144.54 214.732 1145.64 214.732ZM1157.47 210.742V208.192H1167.34V210.742H1157.47ZM1175.06 217.402C1173.7 217.402 1172.46 217.152 1171.34 216.652C1170.24 216.132 1169.31 215.382 1168.55 214.402L1170.47 212.482C1170.93 213.182 1171.56 213.742 1172.36 214.162C1173.16 214.562 1174.05 214.762 1175.03 214.762C1175.95 214.762 1176.74 214.592 1177.4 214.252C1178.08 213.892 1178.61 213.392 1178.99 212.752C1179.39 212.112 1179.59 211.372 1179.59 210.532C1179.59 209.672 1179.39 208.932 1178.99 208.312C1178.61 207.672 1178.07 207.182 1177.37 206.842C1176.67 206.502 1175.84 206.332 1174.88 206.332C1174.52 206.332 1174.16 206.362 1173.8 206.422C1173.44 206.462 1173.09 206.532 1172.75 206.632L1173.95 205.012C1174.33 204.832 1174.74 204.692 1175.18 204.592C1175.62 204.492 1176.06 204.442 1176.5 204.442C1177.62 204.442 1178.62 204.702 1179.5 205.222C1180.4 205.742 1181.11 206.472 1181.63 207.412C1182.17 208.352 1182.44 209.442 1182.44 210.682C1182.44 212.002 1182.12 213.172 1181.48 214.192C1180.86 215.192 1180 215.982 1178.9 216.562C1177.8 217.122 1176.52 217.402 1175.06 217.402ZM1172.75 206.632V204.922L1178.84 197.992L1182.2 197.962L1175.93 205.072L1172.75 206.632ZM1169.54 198.802V196.282H1182.2V197.962L1179.74 198.802H1169.54ZM1193.69 217.402C1192.13 217.402 1190.7 216.962 1189.4 216.082C1188.12 215.202 1187.1 213.962 1186.34 212.362C1185.58 210.742 1185.2 208.842 1185.2 206.662C1185.2 204.482 1185.57 202.592 1186.31 200.992C1187.07 199.392 1188.09 198.162 1189.37 197.302C1190.65 196.422 1192.06 195.982 1193.6 195.982C1195.18 195.982 1196.61 196.422 1197.89 197.302C1199.17 198.162 1200.18 199.392 1200.92 200.992C1201.68 202.592 1202.06 204.492 1202.06 206.692C1202.06 208.872 1201.68 210.772 1200.92 212.392C1200.18 213.992 1199.17 215.232 1197.89 216.112C1196.63 216.972 1195.23 217.402 1193.69 217.402ZM1193.63 214.732C1194.73 214.732 1195.69 214.432 1196.51 213.832C1197.35 213.212 1198.01 212.302 1198.49 211.102C1198.97 209.902 1199.21 208.422 1199.21 206.662C1199.21 204.902 1198.97 203.432 1198.49 202.252C1198.01 201.052 1197.35 200.152 1196.51 199.552C1195.67 198.932 1194.7 198.622 1193.6 198.622C1192.52 198.622 1191.56 198.932 1190.72 199.552C1189.88 200.152 1189.22 201.052 1188.74 202.252C1188.28 203.432 1188.05 204.902 1188.05 206.662C1188.05 208.422 1188.28 209.902 1188.74 211.102C1189.22 212.302 1189.88 213.212 1190.72 213.832C1191.56 214.432 1192.53 214.732 1193.63 214.732Z" fill="black"/>
<rect x="0.339844" y="274.998" width="254.858" height="90.218" fill="#F2F2F2"/>
<rect x="263.902" y="274.998" width="300.073" height="90.218" fill="#3A795E"/>
<rect x="572.336" y="274.998" width="463.7" height="90.218" fill="#31654F"/>
<rect x="1043.95" y="274.998" width="235.388" height="90.218" fill="#F6E0AF"/>
<path d="M32.4886 331.232L41.0086 310.412H43.0486L51.5386 331.232H48.4786L41.4886 313.622H42.5386L35.4886 331.232H32.4886ZM36.5386 326.522V324.062H47.4886V326.522H36.5386ZM54.6729 331.232V310.412H57.4929V331.232H54.6729ZM56.5929 322.082V319.502H67.4529V322.082H56.5929ZM56.5929 312.992V310.412H67.9629V312.992H56.5929ZM76.5113 331.232V311.012H79.3313V331.232H76.5113ZM69.4313 312.992V310.412H86.3813V312.992H69.4313ZM89.7413 331.232V310.412H92.5613V331.232H89.7413ZM91.6613 331.232V328.652H103.601V331.232H91.6613ZM91.6613 321.812V319.352H102.611V321.812H91.6613ZM91.6613 312.992V310.412H103.451V312.992H91.6613ZM109.327 322.172V319.802H114.967C116.187 319.802 117.127 319.492 117.787 318.872C118.447 318.252 118.777 317.412 118.777 316.352C118.777 315.352 118.447 314.522 117.787 313.862C117.147 313.202 116.217 312.872 114.997 312.872H109.327V310.412H115.087C116.407 310.412 117.557 310.672 118.537 311.192C119.517 311.692 120.267 312.382 120.787 313.262C121.327 314.142 121.597 315.152 121.597 316.292C121.597 317.472 121.327 318.502 120.787 319.382C120.267 320.262 119.517 320.952 118.537 321.452C117.557 321.932 116.407 322.172 115.087 322.172H109.327ZM107.437 331.232V310.412H110.257V331.232H107.437ZM119.437 331.232L111.877 321.902L114.547 320.972L123.007 331.232H119.437ZM130.33 331.232V311.012H133.15V331.232H130.33ZM123.25 312.992V310.412H140.2V312.992H123.25ZM139.012 331.232L147.532 310.412H149.572L158.062 331.232H155.002L148.012 313.622H149.062L142.012 331.232H139.012ZM143.062 326.522V324.062H154.012V326.522H143.062ZM166.4 331.532C164.76 331.532 163.36 331.232 162.2 330.632C161.04 330.032 160.01 329.162 159.11 328.022L161.03 326.102C161.69 327.022 162.45 327.722 163.31 328.202C164.17 328.662 165.23 328.892 166.49 328.892C167.73 328.892 168.72 328.622 169.46 328.082C170.22 327.542 170.6 326.802 170.6 325.862C170.6 325.082 170.42 324.452 170.06 323.972C169.7 323.492 169.21 323.102 168.59 322.802C167.99 322.482 167.33 322.202 166.61 321.962C165.89 321.702 165.17 321.432 164.45 321.152C163.73 320.852 163.07 320.492 162.47 320.072C161.87 319.632 161.38 319.062 161 318.362C160.64 317.662 160.46 316.782 160.46 315.722C160.46 314.542 160.74 313.542 161.3 312.722C161.88 311.882 162.66 311.242 163.64 310.802C164.64 310.342 165.76 310.112 167 310.112C168.36 310.112 169.58 310.382 170.66 310.922C171.74 311.442 172.62 312.132 173.3 312.992L171.38 314.912C170.76 314.192 170.09 313.652 169.37 313.292C168.67 312.932 167.86 312.752 166.94 312.752C165.82 312.752 164.93 313.002 164.27 313.502C163.61 313.982 163.28 314.662 163.28 315.542C163.28 316.242 163.46 316.812 163.82 317.252C164.2 317.672 164.69 318.032 165.29 318.332C165.89 318.632 166.55 318.912 167.27 319.172C168.01 319.412 168.74 319.682 169.46 319.982C170.18 320.282 170.84 320.662 171.44 321.122C172.04 321.582 172.52 322.182 172.88 322.922C173.26 323.642 173.45 324.552 173.45 325.652C173.45 327.492 172.81 328.932 171.53 329.972C170.27 331.012 168.56 331.532 166.4 331.532ZM181.804 331.232V311.012H184.624V331.232H181.804ZM174.724 312.992V310.412H191.674V312.992H174.724ZM195.034 331.232V310.412H197.854V331.232H195.034ZM196.954 331.232V328.652H208.894V331.232H196.954ZM196.954 321.812V319.352H207.904V321.812H196.954ZM196.954 312.992V310.412H208.744V312.992H196.954Z" fill="black"/>
<path d="M376.855 331.236V311.016H379.675V331.236H376.855ZM369.775 312.996V310.416H386.725V312.996H369.775ZM390.085 331.236V310.416H392.905V331.236H390.085ZM399.679 331.236V328.656H405.469C407.009 328.656 408.359 328.326 409.519 327.666C410.679 326.986 411.579 326.056 412.219 324.876C412.879 323.696 413.209 322.336 413.209 320.796C413.209 319.276 412.879 317.926 412.219 316.746C411.559 315.566 410.649 314.646 409.489 313.986C408.329 313.326 406.989 312.996 405.469 312.996H399.709V310.416H405.529C407.049 310.416 408.449 310.676 409.729 311.196C411.029 311.716 412.149 312.446 413.089 313.386C414.049 314.326 414.789 315.426 415.309 316.686C415.849 317.946 416.119 319.326 416.119 320.826C416.119 322.306 415.849 323.686 415.309 324.966C414.789 326.226 414.059 327.326 413.119 328.266C412.179 329.206 411.059 329.936 409.759 330.456C408.479 330.976 407.089 331.236 405.589 331.236H399.679ZM397.819 331.236V310.416H400.639V331.236H397.819ZM418.496 331.236L427.016 310.416H429.056L437.546 331.236H434.486L427.496 313.626H428.546L421.496 331.236H418.496ZM422.546 326.526V324.066H433.496V326.526H422.546ZM453.551 331.236L443.051 320.376L453.341 310.416H457.001L445.901 321.096V319.536L457.301 331.236H453.551ZM440.681 331.236V310.416H443.501V331.236H440.681Z" fill="white"/>
<path d="M687.93 331.236L696.45 310.416H698.49L706.98 331.236H703.92L696.93 313.626H697.98L690.93 331.236H687.93ZM691.98 326.526V324.066H702.93V326.526H691.98ZM711.974 331.236V328.656H717.764C719.304 328.656 720.654 328.326 721.814 327.666C722.974 326.986 723.874 326.056 724.514 324.876C725.174 323.696 725.504 322.336 725.504 320.796C725.504 319.276 725.174 317.926 724.514 316.746C723.854 315.566 722.944 314.646 721.784 313.986C720.624 313.326 719.284 312.996 717.764 312.996H712.004V310.416H717.824C719.344 310.416 720.744 310.676 722.024 311.196C723.324 311.716 724.444 312.446 725.384 313.386C726.344 314.326 727.084 315.426 727.604 316.686C728.144 317.946 728.414 319.326 728.414 320.826C728.414 322.306 728.144 323.686 727.604 324.966C727.084 326.226 726.354 327.326 725.414 328.266C724.474 329.206 723.354 329.936 722.054 330.456C720.774 330.976 719.384 331.236 717.884 331.236H711.974ZM710.114 331.236V310.416H712.934V331.236H710.114ZM730.791 331.236L739.311 310.416H741.351L749.841 331.236H746.781L739.791 313.626H740.841L733.791 331.236H730.791ZM734.841 326.526V324.066H745.791V326.526H734.841ZM760.491 322.176V319.806H766.131C767.351 319.806 768.291 319.496 768.951 318.876C769.611 318.256 769.941 317.416 769.941 316.356C769.941 315.356 769.611 314.526 768.951 313.866C768.311 313.206 767.381 312.876 766.161 312.876H760.491V310.416H766.251C767.571 310.416 768.721 310.676 769.701 311.196C770.681 311.696 771.431 312.386 771.951 313.266C772.491 314.146 772.761 315.156 772.761 316.296C772.761 317.476 772.491 318.506 771.951 319.386C771.431 320.266 770.681 320.956 769.701 321.456C768.721 321.936 767.571 322.176 766.251 322.176H760.491ZM758.601 331.236V310.416H761.421V331.236H758.601ZM770.601 331.236L763.041 321.906L765.711 320.976L774.171 331.236H770.601ZM774.883 331.236L783.403 310.416H785.443L793.933 331.236H790.873L783.883 313.626H784.933L777.883 331.236H774.883ZM778.933 326.526V324.066H789.883V326.526H778.933ZM802.271 331.536C800.631 331.536 799.231 331.236 798.071 330.636C796.911 330.036 795.881 329.166 794.981 328.026L796.901 326.106C797.561 327.026 798.321 327.726 799.181 328.206C800.041 328.666 801.101 328.896 802.361 328.896C803.601 328.896 804.591 328.626 805.331 328.086C806.091 327.546 806.471 326.806 806.471 325.866C806.471 325.086 806.291 324.456 805.931 323.976C805.571 323.496 805.081 323.106 804.461 322.806C803.861 322.486 803.201 322.206 802.481 321.966C801.761 321.706 801.041 321.436 800.321 321.156C799.601 320.856 798.941 320.496 798.341 320.076C797.741 319.636 797.251 319.066 796.871 318.366C796.511 317.666 796.331 316.786 796.331 315.726C796.331 314.546 796.611 313.546 797.171 312.726C797.751 311.886 798.531 311.246 799.511 310.806C800.511 310.346 801.631 310.116 802.871 310.116C804.231 310.116 805.451 310.386 806.531 310.926C807.611 311.446 808.491 312.136 809.171 312.996L807.251 314.916C806.631 314.196 805.961 313.656 805.241 313.296C804.541 312.936 803.731 312.756 802.811 312.756C801.691 312.756 800.801 313.006 800.141 313.506C799.481 313.986 799.151 314.666 799.151 315.546C799.151 316.246 799.331 316.816 799.691 317.256C800.071 317.676 800.561 318.036 801.161 318.336C801.761 318.636 802.421 318.916 803.141 319.176C803.881 319.416 804.611 319.686 805.331 319.986C806.051 320.286 806.711 320.666 807.311 321.126C807.911 321.586 808.391 322.186 808.751 322.926C809.131 323.646 809.321 324.556 809.321 325.656C809.321 327.496 808.681 328.936 807.401 329.976C806.141 331.016 804.431 331.536 802.271 331.536ZM810.918 331.236L819.438 310.416H821.478L829.968 331.236H826.908L819.918 313.626H820.968L813.918 331.236H810.918ZM814.968 326.526V324.066H825.918V326.526H814.968ZM840.618 323.136V320.676H846.288C847.068 320.676 847.758 320.516 848.358 320.196C848.978 319.876 849.458 319.426 849.798 318.846C850.158 318.266 850.338 317.576 850.338 316.776C850.338 315.976 850.158 315.286 849.798 314.706C849.458 314.126 848.978 313.676 848.358 313.356C847.758 313.036 847.068 312.876 846.288 312.876H840.618V310.416H846.468C847.748 310.416 848.888 310.676 849.888 311.196C850.908 311.716 851.708 312.456 852.288 313.416C852.888 314.356 853.188 315.476 853.188 316.776C853.188 318.056 852.888 319.176 852.288 320.136C851.708 321.076 850.908 321.816 849.888 322.356C848.888 322.876 847.748 323.136 846.468 323.136H840.618ZM838.728 331.236V310.416H841.548V331.236H838.728ZM853.399 331.236L861.919 310.416H863.959L872.449 331.236H869.389L862.399 313.626H863.449L856.399 331.236H853.399ZM857.449 326.526V324.066H868.399V326.526H857.449ZM875.583 331.236V310.416H878.403V331.236H875.583ZM889.023 331.236V310.416H891.843V331.236H889.023ZM877.503 321.756V319.176H889.713V321.756H877.503ZM896.765 331.236V310.416H899.585V331.236H896.765ZM910.019 331.236V311.016H912.839V331.236H910.019ZM902.939 312.996V310.416H919.889V312.996H902.939Z" fill="white"/>
<path d="M1124.55 331.236V311.016H1127.37V331.236H1124.55ZM1117.47 312.996V310.416H1134.42V312.996H1117.47ZM1137.78 331.236V310.416H1140.6V331.236H1137.78ZM1147.37 331.236V328.656H1153.16C1154.7 328.656 1156.05 328.326 1157.21 327.666C1158.37 326.986 1159.27 326.056 1159.91 324.876C1160.57 323.696 1160.9 322.336 1160.9 320.796C1160.9 319.276 1160.57 317.926 1159.91 316.746C1159.25 315.566 1158.34 314.646 1157.18 313.986C1156.02 313.326 1154.68 312.996 1153.16 312.996H1147.4V310.416H1153.22C1154.74 310.416 1156.14 310.676 1157.42 311.196C1158.72 311.716 1159.84 312.446 1160.78 313.386C1161.74 314.326 1162.48 315.426 1163 316.686C1163.54 317.946 1163.81 319.326 1163.81 320.826C1163.81 322.306 1163.54 323.686 1163 324.966C1162.48 326.226 1161.75 327.326 1160.81 328.266C1159.87 329.206 1158.75 329.936 1157.45 330.456C1156.17 330.976 1154.78 331.236 1153.28 331.236H1147.37ZM1145.51 331.236V310.416H1148.33V331.236H1145.51ZM1166.19 331.236L1174.71 310.416H1176.75L1185.24 331.236H1182.18L1175.19 313.626H1176.24L1169.19 331.236H1166.19ZM1170.24 326.526V324.066H1181.19V326.526H1170.24ZM1201.25 331.236L1190.75 320.376L1201.04 310.416H1204.7L1193.6 321.096V319.536L1205 331.236H1201.25ZM1188.38 331.236V310.416H1191.2V331.236H1188.38Z" fill="black"/>
<rect x="0.339844" y="503.258" width="254.858" height="90.218" fill="#F2F2F2"/>
<rect x="263.902" y="503.258" width="300.073" height="90.218" fill="#3A795E"/>
<rect x="572.336" y="503.258" width="463.7" height="90.218" fill="#31654F"/>
<rect x="1043.95" y="503.258" width="235.388" height="90.218" fill="#F6E0AF"/>
<path d="M35.9086 535.563V533.193H41.5486C42.7686 533.193 43.7086 532.883 44.3686 532.263C45.0286 531.643 45.3586 530.803 45.3586 529.743C45.3586 528.743 45.0286 527.913 44.3686 527.253C43.7286 526.593 42.7986 526.263 41.5786 526.263H35.9086V523.803H41.6686C42.9886 523.803 44.1386 524.063 45.1186 524.583C46.0986 525.083 46.8486 525.773 47.3686 526.653C47.9086 527.533 48.1786 528.543 48.1786 529.683C48.1786 530.863 47.9086 531.893 47.3686 532.773C46.8486 533.653 46.0986 534.343 45.1186 534.843C44.1386 535.323 42.9886 535.563 41.6686 535.563H35.9086ZM34.0186 544.623V523.803H36.8386V544.623H34.0186ZM46.0186 544.623L38.4586 535.293L41.1286 534.363L49.5886 544.623H46.0186ZM50.3011 544.623L58.8211 523.803H60.8611L69.3511 544.623H66.2911L59.3011 527.013H60.3511L53.3011 544.623H50.3011ZM54.3511 539.913V537.453H65.3011V539.913H54.3511ZM77.6895 544.923C76.0495 544.923 74.6495 544.623 73.4895 544.023C72.3295 543.423 71.2995 542.553 70.3995 541.413L72.3195 539.493C72.9795 540.413 73.7395 541.113 74.5995 541.593C75.4595 542.053 76.5195 542.283 77.7795 542.283C79.0195 542.283 80.0095 542.013 80.7495 541.473C81.5095 540.933 81.8895 540.193 81.8895 539.253C81.8895 538.473 81.7095 537.843 81.3495 537.363C80.9895 536.883 80.4995 536.493 79.8795 536.193C79.2795 535.873 78.6195 535.593 77.8995 535.353C77.1795 535.093 76.4595 534.823 75.7395 534.543C75.0195 534.243 74.3595 533.883 73.7595 533.463C73.1595 533.023 72.6695 532.453 72.2895 531.753C71.9295 531.053 71.7495 530.173 71.7495 529.113C71.7495 527.933 72.0295 526.933 72.5895 526.113C73.1695 525.273 73.9495 524.633 74.9295 524.193C75.9295 523.733 77.0495 523.503 78.2895 523.503C79.6495 523.503 80.8695 523.773 81.9495 524.313C83.0295 524.833 83.9095 525.523 84.5895 526.383L82.6695 528.303C82.0495 527.583 81.3795 527.043 80.6595 526.683C79.9595 526.323 79.1495 526.143 78.2295 526.143C77.1095 526.143 76.2195 526.393 75.5595 526.893C74.8995 527.373 74.5695 528.053 74.5695 528.933C74.5695 529.633 74.7495 530.203 75.1095 530.643C75.4895 531.063 75.9795 531.423 76.5795 531.723C77.1795 532.023 77.8395 532.303 78.5595 532.563C79.2995 532.803 80.0295 533.073 80.7495 533.373C81.4695 533.673 82.1295 534.053 82.7295 534.513C83.3295 534.973 83.8095 535.573 84.1695 536.313C84.5495 537.033 84.7395 537.943 84.7395 539.043C84.7395 540.883 84.0995 542.323 82.8195 543.363C81.5595 544.403 79.8495 544.923 77.6895 544.923ZM86.3363 544.623L94.8563 523.803H96.8963L105.386 544.623H102.326L95.3363 527.013H96.3863L89.3363 544.623H86.3363ZM90.3863 539.913V537.453H101.336V539.913H90.3863ZM127.016 544.623L116.516 533.763L126.806 523.803H130.466L119.366 534.483V532.923L130.766 544.623H127.016ZM114.146 544.623V523.803H116.966V544.623H114.146ZM133.599 544.623V523.803H136.419V544.623H133.599ZM135.519 544.623V542.043H147.459V544.623H135.519ZM135.519 535.203V532.743H146.469V535.203H135.519ZM135.519 526.383V523.803H147.309V526.383H135.519ZM34.0186 574.623V553.803H35.9986L44.8186 568.293H43.4686L52.2886 553.803H54.2686V574.623H51.4486V558.753L52.1086 558.933L45.1486 570.363H43.1686L36.2086 558.933L36.8386 558.753V574.623H34.0186ZM57.6546 574.623L66.1746 553.803H68.2146L76.7046 574.623H73.6446L66.6546 557.013H67.7046L60.6546 574.623H57.6546ZM61.7046 569.913V567.453H72.6546V569.913H61.7046ZM92.7089 574.623L82.2089 563.763L92.4989 553.803H96.1589L85.0589 564.483V562.923L96.4589 574.623H92.7089ZM79.8389 574.623V553.803H82.6589V574.623H79.8389ZM97.1468 574.623L105.667 553.803H107.707L116.197 574.623H113.137L106.147 557.013H107.197L100.147 574.623H97.1468ZM101.197 569.913V567.453H112.147V569.913H101.197ZM119.331 574.623V553.803H121.311L122.151 557.073V574.623H119.331ZM133.731 574.623L120.951 557.553L121.311 553.803L134.121 570.843L133.731 574.623ZM133.731 574.623L132.891 571.533V553.803H135.711V574.623H133.731ZM139.1 574.623L147.62 553.803H149.66L158.15 574.623H155.09L148.1 557.013H149.15L142.1 574.623H139.1ZM143.15 569.913V567.453H154.1V569.913H143.15ZM161.284 574.623V553.803H163.264L164.104 557.073V574.623H161.284ZM175.684 574.623L162.904 557.553L163.264 553.803L176.074 570.843L175.684 574.623ZM175.684 574.623L174.844 571.533V553.803H177.664V574.623H175.684Z" fill="black"/>
<path d="M322.765 544.623V523.803H324.745L325.585 527.073V544.623H322.765ZM337.165 544.623L324.385 527.553L324.745 523.803L337.555 540.843L337.165 544.623ZM337.165 544.623L336.325 541.533V523.803H339.145V544.623H337.165ZM344.064 544.623V523.803H346.884V544.623H344.064ZM345.984 544.623V542.043H357.924V544.623H345.984ZM345.984 535.203V532.743H356.934V535.203H345.984ZM345.984 526.383V523.803H357.774V526.383H345.984ZM366.488 544.623V524.403H369.308V544.623H366.488ZM359.408 526.383V523.803H376.358V526.383H359.408ZM381.608 535.563V533.193H387.248C388.468 533.193 389.408 532.883 390.068 532.263C390.728 531.643 391.058 530.803 391.058 529.743C391.058 528.743 390.728 527.913 390.068 527.253C389.428 526.593 388.498 526.263 387.278 526.263H381.608V523.803H387.368C388.688 523.803 389.838 524.063 390.818 524.583C391.798 525.083 392.548 525.773 393.068 526.653C393.608 527.533 393.878 528.543 393.878 529.683C393.878 530.863 393.608 531.893 393.068 532.773C392.548 533.653 391.798 534.343 390.818 534.843C389.838 535.323 388.688 535.563 387.368 535.563H381.608ZM379.718 544.623V523.803H382.538V544.623H379.718ZM391.718 544.623L384.158 535.293L386.828 534.363L395.288 544.623H391.718ZM396 544.623L404.52 523.803H406.56L415.05 544.623H411.99L405 527.013H406.05L399 544.623H396ZM400.05 539.913V537.453H411V539.913H400.05ZM418.185 544.623V523.803H421.005V544.623H418.185ZM420.105 544.623V542.043H431.265V544.623H420.105ZM460.633 544.623L450.673 533.943C449.893 533.103 449.313 532.303 448.933 531.543C448.553 530.783 448.363 529.943 448.363 529.023C448.363 527.963 448.613 527.023 449.113 526.203C449.613 525.363 450.303 524.703 451.183 524.223C452.063 523.723 453.073 523.473 454.213 523.473C455.053 523.473 455.813 523.613 456.493 523.893C457.193 524.153 457.803 524.503 458.323 524.943C458.863 525.383 459.313 525.883 459.673 526.443L457.723 528.213C457.263 527.573 456.753 527.063 456.193 526.683C455.653 526.283 454.993 526.083 454.213 526.083C453.313 526.083 452.563 526.353 451.963 526.893C451.363 527.433 451.063 528.133 451.063 528.993C451.063 529.713 451.213 530.323 451.513 530.823C451.813 531.323 452.263 531.903 452.863 532.563L463.933 544.623H460.633ZM453.163 544.923C451.783 544.923 450.573 544.653 449.533 544.113C448.493 543.573 447.683 542.833 447.103 541.893C446.543 540.933 446.263 539.843 446.263 538.623C446.263 537.363 446.603 536.223 447.283 535.203C447.963 534.183 448.953 533.373 450.253 532.773L451.543 534.453C450.743 534.853 450.113 535.403 449.653 536.103C449.193 536.783 448.963 537.603 448.963 538.563C448.963 539.343 449.143 540.013 449.503 540.573C449.863 541.133 450.363 541.573 451.003 541.893C451.663 542.193 452.413 542.343 453.253 542.343C454.313 542.343 455.213 542.123 455.953 541.683C456.693 541.243 457.253 540.683 457.633 540.003L459.403 542.073C459.003 542.613 458.473 543.103 457.813 543.543C457.173 543.963 456.453 544.303 455.653 544.563C454.873 544.803 454.043 544.923 453.163 544.923ZM322.765 574.623V553.803H324.745L333.565 568.293H332.215L341.035 553.803H343.015V574.623H340.195V558.753L340.855 558.933L333.895 570.363H331.915L324.955 558.933L325.585 558.753V574.623H322.765ZM346.401 574.623L354.921 553.803H356.961L365.451 574.623H362.391L355.401 557.013H356.451L349.401 574.623H346.401ZM350.451 569.913V567.453H361.401V569.913H350.451ZM368.585 574.623V553.803H370.565L371.405 557.073V574.623H368.585ZM382.985 574.623L370.205 557.553L370.565 553.803L383.375 570.843L382.985 574.623ZM382.985 574.623L382.145 571.533V553.803H384.965V574.623H382.985ZM389.884 574.623V553.803H392.704V574.623H389.884ZM402.998 574.923C401.358 574.923 399.958 574.623 398.798 574.023C397.638 573.423 396.608 572.553 395.708 571.413L397.628 569.493C398.288 570.413 399.048 571.113 399.908 571.593C400.768 572.053 401.828 572.283 403.088 572.283C404.328 572.283 405.318 572.013 406.058 571.473C406.818 570.933 407.198 570.193 407.198 569.253C407.198 568.473 407.018 567.843 406.658 567.363C406.298 566.883 405.808 566.493 405.188 566.193C404.588 565.873 403.928 565.593 403.208 565.353C402.488 565.093 401.768 564.823 401.048 564.543C400.328 564.243 399.668 563.883 399.068 563.463C398.468 563.023 397.978 562.453 397.598 561.753C397.238 561.053 397.058 560.173 397.058 559.113C397.058 557.933 397.338 556.933 397.898 556.113C398.478 555.273 399.258 554.633 400.238 554.193C401.238 553.733 402.358 553.503 403.598 553.503C404.958 553.503 406.178 553.773 407.258 554.313C408.338 554.833 409.218 555.523 409.898 556.383L407.978 558.303C407.358 557.583 406.688 557.043 405.968 556.683C405.268 556.323 404.458 556.143 403.538 556.143C402.418 556.143 401.528 556.393 400.868 556.893C400.208 557.373 399.878 558.053 399.878 558.933C399.878 559.633 400.058 560.203 400.418 560.643C400.798 561.063 401.288 561.423 401.888 561.723C402.488 562.023 403.148 562.303 403.868 562.563C404.608 562.803 405.338 563.073 406.058 563.373C406.778 563.673 407.438 564.053 408.038 564.513C408.638 564.973 409.118 565.573 409.478 566.313C409.858 567.033 410.048 567.943 410.048 569.043C410.048 570.883 409.408 572.323 408.128 573.363C406.868 574.403 405.158 574.923 402.998 574.923ZM417.709 574.623L426.229 553.803H428.269L436.759 574.623H433.699L426.709 557.013H427.759L420.709 574.623H417.709ZM421.759 569.913V567.453H432.709V569.913H421.759ZM439.894 574.623V553.803H442.714V574.623H439.894ZM441.814 574.623V572.043H452.974V574.623H441.814ZM454.155 574.623L462.675 553.803H464.715L473.205 574.623H470.145L463.155 557.013H464.205L457.155 574.623H454.155ZM458.205 569.913V567.453H469.155V569.913H458.205ZM476.339 574.623V553.803H478.319L487.139 568.293H485.789L494.609 553.803H496.589V574.623H493.769V558.753L494.429 558.933L487.469 570.363H485.489L478.529 558.933L479.159 558.753V574.623H476.339ZM501.505 574.623V553.803H504.325V574.623H501.505Z" fill="white"/>
<path d="M688.242 559.794C686.602 559.794 685.202 559.494 684.042 558.894C682.882 558.294 681.852 557.424 680.952 556.284L682.872 554.364C683.532 555.284 684.292 555.984 685.152 556.464C686.012 556.924 687.072 557.154 688.332 557.154C689.572 557.154 690.562 556.884 691.302 556.344C692.062 555.804 692.442 555.064 692.442 554.124C692.442 553.344 692.262 552.714 691.902 552.234C691.542 551.754 691.052 551.364 690.432 551.064C689.832 550.744 689.172 550.464 688.452 550.224C687.732 549.964 687.012 549.694 686.292 549.414C685.572 549.114 684.912 548.754 684.312 548.334C683.712 547.894 683.222 547.324 682.842 546.624C682.482 545.924 682.302 545.044 682.302 543.984C682.302 542.804 682.582 541.804 683.142 540.984C683.722 540.144 684.502 539.504 685.482 539.064C686.482 538.604 687.602 538.374 688.842 538.374C690.202 538.374 691.422 538.644 692.502 539.184C693.582 539.704 694.462 540.394 695.142 541.254L693.222 543.174C692.602 542.454 691.932 541.914 691.212 541.554C690.512 541.194 689.702 541.014 688.782 541.014C687.662 541.014 686.772 541.264 686.112 541.764C685.452 542.244 685.122 542.924 685.122 543.804C685.122 544.504 685.302 545.074 685.662 545.514C686.042 545.934 686.532 546.294 687.132 546.594C687.732 546.894 688.392 547.174 689.112 547.434C689.852 547.674 690.582 547.944 691.302 548.244C692.022 548.544 692.682 548.924 693.282 549.384C693.882 549.844 694.362 550.444 694.722 551.184C695.102 551.904 695.292 552.814 695.292 553.914C695.292 555.754 694.652 557.194 693.372 558.234C692.112 559.274 690.402 559.794 688.242 559.794ZM699.093 559.494V538.674H701.913V559.494H699.093ZM701.013 559.494V556.914H712.953V559.494H701.013ZM701.013 550.074V547.614H711.963V550.074H701.013ZM701.013 541.254V538.674H712.803V541.254H701.013ZM718.678 550.434V548.064H724.318C725.538 548.064 726.478 547.754 727.138 547.134C727.798 546.514 728.128 545.674 728.128 544.614C728.128 543.614 727.798 542.784 727.138 542.124C726.498 541.464 725.568 541.134 724.348 541.134H718.678V538.674H724.438C725.758 538.674 726.908 538.934 727.888 539.454C728.868 539.954 729.618 540.644 730.138 541.524C730.678 542.404 730.948 543.414 730.948 544.554C730.948 545.734 730.678 546.764 730.138 547.644C729.618 548.524 728.868 549.214 727.888 549.714C726.908 550.194 725.758 550.434 724.438 550.434H718.678ZM716.788 559.494V538.674H719.608V559.494H716.788ZM728.788 559.494L721.228 550.164L723.898 549.234L732.358 559.494H728.788ZM735.274 559.494V538.674H738.094V559.494H735.274ZM743.009 559.494V538.674H744.989L745.829 541.944V559.494H743.009ZM757.409 559.494L744.629 542.424L744.989 538.674L757.799 555.714L757.409 559.494ZM757.409 559.494L756.569 556.404V538.674H759.389V559.494H757.409ZM773.728 559.794C772.268 559.794 770.898 559.524 769.618 558.984C768.358 558.424 767.248 557.654 766.288 556.674C765.348 555.694 764.608 554.554 764.068 553.254C763.528 551.954 763.258 550.554 763.258 549.054C763.258 547.554 763.528 546.164 764.068 544.884C764.608 543.584 765.358 542.444 766.318 541.464C767.278 540.484 768.398 539.724 769.678 539.184C770.978 538.644 772.388 538.374 773.908 538.374C775.568 538.374 777.098 538.694 778.498 539.334C779.898 539.974 781.068 540.894 782.008 542.094L780.058 544.044C779.398 543.084 778.528 542.354 777.448 541.854C776.368 541.334 775.188 541.074 773.908 541.074C772.388 541.074 771.038 541.414 769.858 542.094C768.698 542.774 767.788 543.714 767.128 544.914C766.488 546.114 766.168 547.494 766.168 549.054C766.168 550.634 766.498 552.024 767.158 553.224C767.818 554.424 768.708 555.364 769.828 556.044C770.948 556.724 772.228 557.064 773.668 557.064C775.128 557.064 776.388 556.784 777.448 556.224C778.528 555.664 779.358 554.844 779.938 553.764C780.518 552.664 780.808 551.324 780.808 549.744L782.518 550.974H773.518V548.394H783.718V548.814C783.718 551.234 783.288 553.264 782.428 554.904C781.588 556.524 780.408 557.744 778.888 558.564C777.388 559.384 775.668 559.794 773.728 559.794ZM795.641 559.494V557.034H801.941C803.141 557.034 804.081 556.684 804.761 555.984C805.441 555.264 805.781 554.404 805.781 553.404C805.781 552.724 805.631 552.114 805.331 551.574C805.031 551.014 804.591 550.574 804.011 550.254C803.451 549.934 802.791 549.774 802.031 549.774H795.641V547.314H801.611C802.611 547.314 803.401 547.054 803.981 546.534C804.581 545.994 804.881 545.224 804.881 544.224C804.881 543.224 804.571 542.464 803.951 541.944C803.331 541.404 802.511 541.134 801.491 541.134H795.641V538.674H801.551C802.911 538.674 804.041 538.924 804.941 539.424C805.861 539.904 806.551 540.544 807.011 541.344C807.491 542.144 807.731 543.024 807.731 543.984C807.731 545.104 807.421 546.084 806.801 546.924C806.201 547.764 805.311 548.424 804.131 548.904L804.371 548.004C805.711 548.484 806.751 549.214 807.491 550.194C808.251 551.154 808.631 552.294 808.631 553.614C808.631 554.714 808.361 555.704 807.821 556.584C807.281 557.464 806.501 558.174 805.481 558.714C804.481 559.234 803.251 559.494 801.791 559.494H795.641ZM793.751 559.494V538.674H796.571V559.494H793.751ZM812.442 559.494V538.674H815.262V559.494H812.442ZM814.362 559.494V556.914H826.302V559.494H814.362ZM814.362 550.074V547.614H825.312V550.074H814.362ZM814.362 541.254V538.674H826.152V541.254H814.362ZM832.028 550.434V548.064H837.668C838.888 548.064 839.828 547.754 840.488 547.134C841.148 546.514 841.478 545.674 841.478 544.614C841.478 543.614 841.148 542.784 840.488 542.124C839.848 541.464 838.918 541.134 837.698 541.134H832.028V538.674H837.788C839.108 538.674 840.258 538.934 841.238 539.454C842.218 539.954 842.968 540.644 843.488 541.524C844.028 542.404 844.298 543.414 844.298 544.554C844.298 545.734 844.028 546.764 843.488 547.644C842.968 548.524 842.218 549.214 841.238 549.714C840.258 550.194 839.108 550.434 837.788 550.434H832.028ZM830.138 559.494V538.674H832.958V559.494H830.138ZM842.138 559.494L834.578 550.164L837.248 549.234L845.708 559.494H842.138ZM856.365 559.794C854.825 559.794 853.445 559.454 852.225 558.774C851.025 558.074 850.075 557.124 849.375 555.924C848.675 554.704 848.325 553.324 848.325 551.784V538.674H851.145V551.724C851.145 552.824 851.375 553.774 851.835 554.574C852.295 555.374 852.915 555.994 853.695 556.434C854.495 556.874 855.385 557.094 856.365 557.094C857.385 557.094 858.275 556.874 859.035 556.434C859.815 555.994 860.425 555.374 860.865 554.574C861.325 553.774 861.555 552.834 861.555 551.754V538.674H864.405V551.814C864.405 553.354 864.055 554.724 863.355 555.924C862.655 557.124 861.705 558.074 860.505 558.774C859.305 559.454 857.925 559.794 856.365 559.794ZM870.934 559.494V557.034H877.234C878.434 557.034 879.374 556.684 880.054 555.984C880.734 555.264 881.074 554.404 881.074 553.404C881.074 552.724 880.924 552.114 880.624 551.574C880.324 551.014 879.884 550.574 879.304 550.254C878.744 549.934 878.084 549.774 877.324 549.774H870.934V547.314H876.904C877.904 547.314 878.694 547.054 879.274 546.534C879.874 545.994 880.174 545.224 880.174 544.224C880.174 543.224 879.864 542.464 879.244 541.944C878.624 541.404 877.804 541.134 876.784 541.134H870.934V538.674H876.844C878.204 538.674 879.334 538.924 880.234 539.424C881.154 539.904 881.844 540.544 882.304 541.344C882.784 542.144 883.024 543.024 883.024 543.984C883.024 545.104 882.714 546.084 882.094 546.924C881.494 547.764 880.604 548.424 879.424 548.904L879.664 548.004C881.004 548.484 882.044 549.214 882.784 550.194C883.544 551.154 883.924 552.294 883.924 553.614C883.924 554.714 883.654 555.704 883.114 556.584C882.574 557.464 881.794 558.174 880.774 558.714C879.774 559.234 878.544 559.494 877.084 559.494H870.934ZM869.044 559.494V538.674H871.864V559.494H869.044ZM886.205 559.494L894.725 538.674H896.765L905.255 559.494H902.195L895.205 541.884H896.255L889.205 559.494H886.205ZM890.255 554.784V552.324H901.205V554.784H890.255ZM908.39 559.494V538.674H911.21V559.494H908.39ZM921.83 559.494V538.674H924.65V559.494H921.83ZM910.31 550.014V547.434H922.52V550.014H910.31Z" fill="white"/>
<path d="M1120.32 559.794C1118.68 559.794 1117.28 559.494 1116.12 558.894C1114.96 558.294 1113.93 557.424 1113.03 556.284L1114.95 554.364C1115.61 555.284 1116.37 555.984 1117.23 556.464C1118.09 556.924 1119.15 557.154 1120.41 557.154C1121.65 557.154 1122.64 556.884 1123.38 556.344C1124.14 555.804 1124.52 555.064 1124.52 554.124C1124.52 553.344 1124.34 552.714 1123.98 552.234C1123.62 551.754 1123.13 551.364 1122.51 551.064C1121.91 550.744 1121.25 550.464 1120.53 550.224C1119.81 549.964 1119.09 549.694 1118.37 549.414C1117.65 549.114 1116.99 548.754 1116.39 548.334C1115.79 547.894 1115.3 547.324 1114.92 546.624C1114.56 545.924 1114.38 545.044 1114.38 543.984C1114.38 542.804 1114.66 541.804 1115.22 540.984C1115.8 540.144 1116.58 539.504 1117.56 539.064C1118.56 538.604 1119.68 538.374 1120.92 538.374C1122.28 538.374 1123.5 538.644 1124.58 539.184C1125.66 539.704 1126.54 540.394 1127.22 541.254L1125.3 543.174C1124.68 542.454 1124.01 541.914 1123.29 541.554C1122.59 541.194 1121.78 541.014 1120.86 541.014C1119.74 541.014 1118.85 541.264 1118.19 541.764C1117.53 542.244 1117.2 542.924 1117.2 543.804C1117.2 544.504 1117.38 545.074 1117.74 545.514C1118.12 545.934 1118.61 546.294 1119.21 546.594C1119.81 546.894 1120.47 547.174 1121.19 547.434C1121.93 547.674 1122.66 547.944 1123.38 548.244C1124.1 548.544 1124.76 548.924 1125.36 549.384C1125.96 549.844 1126.44 550.444 1126.8 551.184C1127.18 551.904 1127.37 552.814 1127.37 553.914C1127.37 555.754 1126.73 557.194 1125.45 558.234C1124.19 559.274 1122.48 559.794 1120.32 559.794ZM1131.17 559.494V538.674H1133.99V559.494H1131.17ZM1133.09 559.494V556.914H1145.03V559.494H1133.09ZM1133.09 550.074V547.614H1144.04V550.074H1133.09ZM1133.09 541.254V538.674H1144.88V541.254H1133.09ZM1154.13 559.794C1152.49 559.794 1151.09 559.494 1149.93 558.894C1148.77 558.294 1147.74 557.424 1146.84 556.284L1148.76 554.364C1149.42 555.284 1150.18 555.984 1151.04 556.464C1151.9 556.924 1152.96 557.154 1154.22 557.154C1155.46 557.154 1156.45 556.884 1157.19 556.344C1157.95 555.804 1158.33 555.064 1158.33 554.124C1158.33 553.344 1158.15 552.714 1157.79 552.234C1157.43 551.754 1156.94 551.364 1156.32 551.064C1155.72 550.744 1155.06 550.464 1154.34 550.224C1153.62 549.964 1152.9 549.694 1152.18 549.414C1151.46 549.114 1150.8 548.754 1150.2 548.334C1149.6 547.894 1149.11 547.324 1148.73 546.624C1148.37 545.924 1148.19 545.044 1148.19 543.984C1148.19 542.804 1148.47 541.804 1149.03 540.984C1149.61 540.144 1150.39 539.504 1151.37 539.064C1152.37 538.604 1153.49 538.374 1154.73 538.374C1156.09 538.374 1157.31 538.644 1158.39 539.184C1159.47 539.704 1160.35 540.394 1161.02 541.254L1159.11 543.174C1158.49 542.454 1157.82 541.914 1157.1 541.554C1156.4 541.194 1155.59 541.014 1154.67 541.014C1153.55 541.014 1152.66 541.264 1152 541.764C1151.34 542.244 1151.01 542.924 1151.01 543.804C1151.01 544.504 1151.19 545.074 1151.55 545.514C1151.93 545.934 1152.42 546.294 1153.02 546.594C1153.62 546.894 1154.28 547.174 1155 547.434C1155.74 547.674 1156.47 547.944 1157.19 548.244C1157.91 548.544 1158.57 548.924 1159.17 549.384C1159.77 549.844 1160.25 550.444 1160.61 551.184C1160.99 551.904 1161.18 552.814 1161.18 553.914C1161.18 555.754 1160.54 557.194 1159.26 558.234C1158 559.274 1156.29 559.794 1154.13 559.794ZM1173.13 559.794C1171.59 559.794 1170.21 559.454 1168.99 558.774C1167.79 558.074 1166.84 557.124 1166.14 555.924C1165.44 554.704 1165.09 553.324 1165.09 551.784V538.674H1167.91V551.724C1167.91 552.824 1168.14 553.774 1168.6 554.574C1169.06 555.374 1169.68 555.994 1170.46 556.434C1171.26 556.874 1172.15 557.094 1173.13 557.094C1174.15 557.094 1175.04 556.874 1175.8 556.434C1176.58 555.994 1177.19 555.374 1177.63 554.574C1178.09 553.774 1178.32 552.834 1178.32 551.754V538.674H1181.17V551.814C1181.17 553.354 1180.82 554.724 1180.12 555.924C1179.42 557.124 1178.47 558.074 1177.27 558.774C1176.07 559.454 1174.69 559.794 1173.13 559.794ZM1183.6 559.494L1192.12 538.674H1194.16L1202.65 559.494H1199.59L1192.6 541.884H1193.65L1186.6 559.494H1183.6ZM1187.65 554.784V552.324H1198.6V554.784H1187.65ZM1205.79 559.494V538.674H1208.61V559.494H1205.79Z" fill="black"/>
<rect x="0.339844" y="389.129" width="254.858" height="90.218" fill="#F2F2F2"/>
<rect x="263.902" y="389.129" width="300.073" height="90.218" fill="#3A795E"/>
<rect x="572.336" y="389.129" width="463.7" height="90.218" fill="#31654F"/>
<rect x="1043.95" y="389.129" width="235.388" height="90.218" fill="#F6E0AF"/>
<path d="M43.4686 430.79C41.9686 430.79 40.5786 430.52 39.2986 429.98C38.0186 429.42 36.8986 428.65 35.9386 427.67C34.9986 426.69 34.2686 425.55 33.7486 424.25C33.2286 422.95 32.9686 421.56 32.9686 420.08C32.9686 418.58 33.2286 417.18 33.7486 415.88C34.2686 414.58 34.9986 413.45 35.9386 412.49C36.8986 411.51 38.0086 410.75 39.2686 410.21C40.5486 409.65 41.9386 409.37 43.4386 409.37C45.0786 409.37 46.5186 409.65 47.7586 410.21C48.9986 410.77 50.0986 411.53 51.0586 412.49L49.1086 414.44C48.4486 413.7 47.6386 413.12 46.6786 412.7C45.7386 412.28 44.6586 412.07 43.4386 412.07C42.3386 412.07 41.3286 412.27 40.4086 412.67C39.4886 413.05 38.6886 413.6 38.0086 414.32C37.3286 415.04 36.7986 415.89 36.4186 416.87C36.0586 417.85 35.8786 418.92 35.8786 420.08C35.8786 421.24 36.0586 422.31 36.4186 423.29C36.7986 424.27 37.3286 425.12 38.0086 425.84C38.6886 426.56 39.4886 427.12 40.4086 427.52C41.3286 427.9 42.3386 428.09 43.4386 428.09C44.7386 428.09 45.8686 427.88 46.8286 427.46C47.7886 427.02 48.5986 426.43 49.2586 425.69L51.2086 427.61C50.2486 428.61 49.1186 429.39 47.8186 429.95C46.5386 430.51 45.0886 430.79 43.4686 430.79ZM63.3033 430.79C61.8233 430.79 60.4433 430.52 59.1633 429.98C57.8833 429.42 56.7633 428.65 55.8033 427.67C54.8433 426.67 54.0933 425.52 53.5533 424.22C53.0333 422.92 52.7733 421.53 52.7733 420.05C52.7733 418.55 53.0333 417.16 53.5533 415.88C54.0933 414.58 54.8333 413.44 55.7733 412.46C56.7333 411.48 57.8433 410.72 59.1033 410.18C60.3833 409.64 61.7633 409.37 63.2433 409.37C64.7233 409.37 66.0933 409.64 67.3533 410.18C68.6333 410.72 69.7533 411.48 70.7133 412.46C71.6733 413.44 72.4233 414.58 72.9633 415.88C73.5033 417.18 73.7733 418.58 73.7733 420.08C73.7733 421.56 73.5033 422.95 72.9633 424.25C72.4233 425.55 71.6733 426.69 70.7133 427.67C69.7733 428.65 68.6633 429.42 67.3833 429.98C66.1233 430.52 64.7633 430.79 63.3033 430.79ZM63.2433 428.09C64.7433 428.09 66.0533 427.75 67.1733 427.07C68.3133 426.37 69.2133 425.42 69.8733 424.22C70.5333 423 70.8633 421.61 70.8633 420.05C70.8633 418.89 70.6733 417.83 70.2933 416.87C69.9133 415.89 69.3833 415.04 68.7033 414.32C68.0233 413.6 67.2233 413.05 66.3033 412.67C65.3833 412.27 64.3633 412.07 63.2433 412.07C61.7633 412.07 60.4533 412.41 59.3133 413.09C58.1933 413.77 57.3033 414.71 56.6433 415.91C56.0033 417.11 55.6833 418.49 55.6833 420.05C55.6833 421.21 55.8633 422.29 56.2233 423.29C56.6033 424.27 57.1233 425.12 57.7833 425.84C58.4633 426.54 59.2633 427.09 60.1833 427.49C61.1233 427.89 62.1433 428.09 63.2433 428.09ZM87.2674 430.79C85.7674 430.79 84.3774 430.52 83.0974 429.98C81.8174 429.42 80.6974 428.65 79.7374 427.67C78.7974 426.69 78.0674 425.55 77.5474 424.25C77.0274 422.95 76.7674 421.56 76.7674 420.08C76.7674 418.58 77.0274 417.18 77.5474 415.88C78.0674 414.58 78.7974 413.45 79.7374 412.49C80.6974 411.51 81.8074 410.75 83.0674 410.21C84.3474 409.65 85.7374 409.37 87.2374 409.37C88.8774 409.37 90.3174 409.65 91.5574 410.21C92.7974 410.77 93.8974 411.53 94.8574 412.49L92.9074 414.44C92.2474 413.7 91.4374 413.12 90.4774 412.7C89.5374 412.28 88.4574 412.07 87.2374 412.07C86.1374 412.07 85.1274 412.27 84.2074 412.67C83.2874 413.05 82.4874 413.6 81.8074 414.32C81.1274 415.04 80.5974 415.89 80.2174 416.87C79.8574 417.85 79.6774 418.92 79.6774 420.08C79.6774 421.24 79.8574 422.31 80.2174 423.29C80.5974 424.27 81.1274 425.12 81.8074 425.84C82.4874 426.56 83.2874 427.12 84.2074 427.52C85.1274 427.9 86.1374 428.09 87.2374 428.09C88.5374 428.09 89.6674 427.88 90.6274 427.46C91.5874 427.02 92.3974 426.43 93.0574 425.69L95.0074 427.61C94.0474 428.61 92.9174 429.39 91.6174 429.95C90.3374 430.51 88.8874 430.79 87.2674 430.79ZM107.102 430.79C105.622 430.79 104.242 430.52 102.962 429.98C101.682 429.42 100.562 428.65 99.6021 427.67C98.6421 426.67 97.8921 425.52 97.3521 424.22C96.8321 422.92 96.5721 421.53 96.5721 420.05C96.5721 418.55 96.8321 417.16 97.3521 415.88C97.8921 414.58 98.6321 413.44 99.5721 412.46C100.532 411.48 101.642 410.72 102.902 410.18C104.182 409.64 105.562 409.37 107.042 409.37C108.522 409.37 109.892 409.64 111.152 410.18C112.432 410.72 113.552 411.48 114.512 412.46C115.472 413.44 116.222 414.58 116.762 415.88C117.302 417.18 117.572 418.58 117.572 420.08C117.572 421.56 117.302 422.95 116.762 424.25C116.222 425.55 115.472 426.69 114.512 427.67C113.572 428.65 112.462 429.42 111.182 429.98C109.922 430.52 108.562 430.79 107.102 430.79ZM107.042 428.09C108.542 428.09 109.852 427.75 110.972 427.07C112.112 426.37 113.012 425.42 113.672 424.22C114.332 423 114.662 421.61 114.662 420.05C114.662 418.89 114.472 417.83 114.092 416.87C113.712 415.89 113.182 415.04 112.502 414.32C111.822 413.6 111.022 413.05 110.102 412.67C109.182 412.27 108.162 412.07 107.042 412.07C105.562 412.07 104.252 412.41 103.112 413.09C101.992 413.77 101.102 414.71 100.442 415.91C99.8021 417.11 99.4821 418.49 99.4821 420.05C99.4821 421.21 99.6621 422.29 100.022 423.29C100.402 424.27 100.922 425.12 101.582 425.84C102.262 426.54 103.062 427.09 103.982 427.49C104.922 427.89 105.942 428.09 107.042 428.09ZM134.31 430.49L123.81 419.63L134.1 409.67H137.76L126.66 420.35V418.79L138.06 430.49H134.31ZM121.44 430.49V409.67H124.26V430.49H121.44ZM41.8186 460.79C40.2786 460.79 38.8986 460.45 37.6786 459.77C36.4786 459.07 35.5286 458.12 34.8286 456.92C34.1286 455.7 33.7786 454.32 33.7786 452.78V439.67H36.5986V452.72C36.5986 453.82 36.8286 454.77 37.2886 455.57C37.7486 456.37 38.3686 456.99 39.1486 457.43C39.9486 457.87 40.8386 458.09 41.8186 458.09C42.8386 458.09 43.7286 457.87 44.4886 457.43C45.2686 456.99 45.8786 456.37 46.3186 455.57C46.7786 454.77 47.0086 453.83 47.0086 452.75V439.67H49.8586V452.81C49.8586 454.35 49.5086 455.72 48.8086 456.92C48.1086 458.12 47.1586 459.07 45.9586 459.77C44.7586 460.45 43.3786 460.79 41.8186 460.79ZM54.4971 460.49V439.67H56.4771L57.3171 442.94V460.49H54.4971ZM68.8971 460.49L56.1171 443.42L56.4771 439.67L69.2871 456.71L68.8971 460.49ZM68.8971 460.49L68.0571 457.4V439.67H70.8771V460.49H68.8971ZM81.3159 460.49V440.27H84.1359V460.49H81.3159ZM74.2359 442.25V439.67H91.1859V442.25H74.2359ZM102.053 460.79C100.513 460.79 99.133 460.45 97.913 459.77C96.713 459.07 95.763 458.12 95.063 456.92C94.363 455.7 94.013 454.32 94.013 452.78V439.67H96.833V452.72C96.833 453.82 97.063 454.77 97.523 455.57C97.983 456.37 98.603 456.99 99.383 457.43C100.183 457.87 101.073 458.09 102.053 458.09C103.073 458.09 103.963 457.87 104.723 457.43C105.503 456.99 106.113 456.37 106.553 455.57C107.013 454.77 107.243 453.83 107.243 452.75V439.67H110.093V452.81C110.093 454.35 109.743 455.72 109.043 456.92C108.343 458.12 107.393 459.07 106.193 459.77C104.993 460.45 103.613 460.79 102.053 460.79ZM127.601 460.49L117.101 449.63L127.391 439.67H131.051L119.951 450.35V448.79L131.351 460.49H127.601ZM114.731 460.49V439.67H117.551V460.49H114.731ZM141.963 460.49V457.91H147.753C149.293 457.91 150.643 457.58 151.803 456.92C152.963 456.24 153.863 455.31 154.503 454.13C155.163 452.95 155.493 451.59 155.493 450.05C155.493 448.53 155.163 447.18 154.503 446C153.843 444.82 152.933 443.9 151.773 443.24C150.613 442.58 149.273 442.25 147.753 442.25H141.993V439.67H147.813C149.333 439.67 150.733 439.93 152.013 440.45C153.313 440.97 154.433 441.7 155.373 442.64C156.333 443.58 157.073 444.68 157.593 445.94C158.133 447.2 158.403 448.58 158.403 450.08C158.403 451.56 158.133 452.94 157.593 454.22C157.073 455.48 156.343 456.58 155.403 457.52C154.463 458.46 153.343 459.19 152.043 459.71C150.763 460.23 149.373 460.49 147.873 460.49H141.963ZM140.103 460.49V439.67H142.923V460.49H140.103ZM162.31 460.49V439.67H165.13V460.49H162.31ZM170.044 460.49V439.67H172.864V460.49H170.044ZM171.964 460.49V457.91H183.904V460.49H171.964ZM171.964 451.07V448.61H182.914V451.07H171.964ZM171.964 442.25V439.67H183.754V442.25H171.964ZM192.468 460.49V440.27H195.288V460.49H192.468ZM185.388 442.25V439.67H202.338V442.25H185.388ZM210.101 453.89L210.071 448.19L210.881 448.16C211.581 448.16 212.191 448.01 212.711 447.71C213.251 447.41 213.671 447 213.971 446.48C214.271 445.96 214.421 445.38 214.421 444.74C214.421 444.08 214.271 443.5 213.971 443C213.691 442.5 213.281 442.11 212.741 441.83C212.221 441.55 211.601 441.41 210.881 441.41C209.921 441.41 209.091 441.65 208.391 442.13C207.691 442.61 207.131 443.29 206.711 444.17L204.731 442.52C205.311 441.34 206.141 440.42 207.221 439.76C208.321 439.1 209.581 438.77 211.001 438.77C212.221 438.77 213.301 439.02 214.241 439.52C215.181 440 215.911 440.68 216.431 441.56C216.951 442.42 217.211 443.42 217.211 444.56C217.211 445.6 216.971 446.55 216.491 447.41C216.031 448.25 215.371 448.95 214.511 449.51C213.671 450.05 212.671 450.4 211.511 450.56L212.681 449.36L212.441 453.89H210.101ZM211.241 460.79C210.681 460.79 210.211 460.6 209.831 460.22C209.471 459.84 209.291 459.37 209.291 458.81C209.291 458.25 209.471 457.79 209.831 457.43C210.211 457.05 210.681 456.86 211.241 456.86C211.801 456.86 212.261 457.05 212.621 457.43C213.001 457.79 213.191 458.25 213.191 458.81C213.191 459.37 213.001 459.84 212.621 460.22C212.261 460.6 211.801 460.79 211.241 460.79Z" fill="black"/>
<path d="M394.414 451.624H433.344V412.694H394.414V451.624Z" fill="black"/>
<path d="M784.652 451.624H823.582V412.694H784.652V451.624Z" fill="black"/>
<path d="M1142.11 453.624H1181.03V414.694H1142.11V453.624Z" fill="black"/>
</svg>
